<?xml version="1.0" encoding="UTF-8" standalone="no"?>
<svg
   width="16"
   height="16"
   viewBox="0 0 16 16"
   fill="none"
   version="1.1"
   id="svg2"
   sodipodi:docname="clock.svg"
   inkscape:version="1.3.2 (091e20e, 2023-11-25, custom)"
   xmlns:inkscape="http://www.inkscape.org/namespaces/inkscape"
   xmlns:sodipodi="http://sodipodi.sourceforge.net/DTD/sodipodi-0.dtd"
   xmlns="http://www.w3.org/2000/svg"
   xmlns:svg="http://www.w3.org/2000/svg">
  <sodipodi:namedview
     id="namedview2"
     pagecolor="#ffffff"
     bordercolor="#000000"
     borderopacity="0.25"
     inkscape:showpageshadow="2"
     inkscape:pageopacity="0.0"
     inkscape:pagecheckerboard="0"
     inkscape:deskcolor="#d1d1d1"
     inkscape:zoom="50.875"
     inkscape:cx="8"
     inkscape:cy="8"
     inkscape:window-width="1920"
     inkscape:window-height="1010"
     inkscape:window-x="-6"
     inkscape:window-y="-6"
     inkscape:window-maximized="1"
     inkscape:current-layer="svg2" />
  <g
     clip-path="url(#clip0_2001_1564)"
     id="g2">
    <path
       style="color:#000000;fill:#c59b6d;stroke-linecap:round;stroke-linejoin:round;-inkscape-stroke:none"
       d="M 8,0 C 3.587645,0 0,3.587645 0,8 c 0,4.412318 3.5876418,8 8,8 4.412321,0 8,-3.587679 8,-8 C 16,3.5876418 12.412318,0 8,0 Z m 0,1 c 3.871874,0 7,3.1280865 7,7 0,3.871871 -3.128129,7 -7,7 C 4.1280865,15 1,11.871874 1,8 1,4.1280833 4.1280833,1 8,1 Z"
       id="path1" />
    <path
       style="color:#000000;fill:#c59b6d;stroke-linecap:round;stroke-linejoin:round;-inkscape-stroke:none"
       d="m 8,2.8398438 a 0.5,0.5 0 0 0 -0.5,0.5 V 7.7539062 L 4.5957031,9.9941406 a 0.5,0.5 0 0 0 -0.091797,0.7011724 0.5,0.5 0 0 0 0.7011719,0.08984 L 8.3046875,8.3964844 A 0.50005,0.50005 0 0 0 8.5,8 V 3.3398438 a 0.5,0.5 0 0 0 -0.5,-0.5 z"
       id="path2" />
  </g>
  <defs
     id="defs2">
    <clipPath
       id="clip0_2001_1564">
      <rect
         width="16"
         height="16"
         fill="white"
         id="rect2" />
    </clipPath>
  </defs>
</svg>
