<?xml version="1.0" encoding="UTF-8" standalone="no"?>
<svg
   width="16"
   height="17"
   viewBox="0 0 16 17"
   fill="none"
   version="1.1"
   id="svg2"
   sodipodi:docname="close.svg"
   inkscape:version="1.3.2 (091e20e, 2023-11-25, custom)"
   xmlns:inkscape="http://www.inkscape.org/namespaces/inkscape"
   xmlns:sodipodi="http://sodipodi.sourceforge.net/DTD/sodipodi-0.dtd"
   xmlns="http://www.w3.org/2000/svg"
   xmlns:svg="http://www.w3.org/2000/svg">
  <defs
     id="defs2" />
  <sodipodi:namedview
     id="namedview2"
     pagecolor="#ffffff"
     bordercolor="#000000"
     borderopacity="0.25"
     inkscape:showpageshadow="2"
     inkscape:pageopacity="0.0"
     inkscape:pagecheckerboard="0"
     inkscape:deskcolor="#d1d1d1"
     inkscape:zoom="47.882353"
     inkscape:cx="7.9987715"
     inkscape:cy="8.5"
     inkscape:window-width="1920"
     inkscape:window-height="1010"
     inkscape:window-x="-6"
     inkscape:window-y="-6"
     inkscape:window-maximized="1"
     inkscape:current-layer="svg2" />
  <path
     style="color:#000000;fill:#eeeeee;stroke-linecap:round;stroke-linejoin:round;-inkscape-stroke:none"
     d="M 11.646484,4.1464844 3.6464844,12.146484 a 0.5,0.5 0 0 0 0,0.707032 0.5,0.5 0 0 0 0.7070312,0 L 12.353516,4.8535156 a 0.5,0.5 0 0 0 0,-0.7070312 0.5,0.5 0 0 0 -0.707032,0 z"
     id="path1" />
  <path
     style="color:#000000;fill:#eeeeee;stroke-linecap:round;stroke-linejoin:round;-inkscape-stroke:none"
     d="m 4,4 a 0.5,0.5 0 0 0 -0.3535156,0.1464844 0.5,0.5 0 0 0 0,0.7070312 l 7.9999996,8.0000004 a 0.5,0.5 0 0 0 0.707032,0 0.5,0.5 0 0 0 0,-0.707032 L 4.3535156,4.1464844 A 0.5,0.5 0 0 0 4,4 Z"
     id="path2" />
</svg>
