<?xml version="1.0" encoding="UTF-8" standalone="no"?>
<!-- Uploaded to: SVG Repo, www.svgrepo.com, Generator: SVG Repo Mixer Tools -->

<svg
   width="800px"
   height="800px"
   viewBox="0 0 24 24"
   fill="none"
   version="1.1"
   id="svg4"
   sodipodi:docname="download.svg"
   inkscape:version="1.1.2 (0a00cf5339, 2022-02-04)"
   xmlns:inkscape="http://www.inkscape.org/namespaces/inkscape"
   xmlns:sodipodi="http://sodipodi.sourceforge.net/DTD/sodipodi-0.dtd"
   xmlns="http://www.w3.org/2000/svg"
   xmlns:svg="http://www.w3.org/2000/svg">
  <defs
     id="defs8" />
  <sodipodi:namedview
     id="namedview6"
     pagecolor="#ffffff"
     bordercolor="#666666"
     borderopacity="1.0"
     inkscape:pageshadow="2"
     inkscape:pageopacity="0.0"
     inkscape:pagecheckerboard="0"
     showgrid="false"
     inkscape:zoom="1.05"
     inkscape:cx="399.52381"
     inkscape:cy="400.47619"
     inkscape:window-width="1920"
     inkscape:window-height="1012"
     inkscape:window-x="0"
     inkscape:window-y="31"
     inkscape:window-maximized="1"
     inkscape:current-layer="svg4" />
  <path
     style="color:#000000;fill:#464455;stroke-linecap:round;stroke-linejoin:round;-inkscape-stroke:none"
     d="M 11.099609,4.5 C 7.9069063,4.5 5.3386658,7.1017923 5.2363281,10.314453 3.6587927,10.898928 2.5,12.373524 2.5,14.166016 c 0,2.290311 1.8361706,4.167968 4.0996094,4.167968 a 0.5,0.5 0 0 0 0.5,-0.5 0.5,0.5 0 0 0 -0.5,-0.5 C 4.8866121,17.333984 3.5,15.9257 3.5,14.166016 c 0,-1.45009 0.9493787,-2.660048 2.234375,-3.041016 0.2764411,-0.0821 0.4648438,-0.33834 0.4648437,-0.625 0,-2.7722609 2.1932769,-5 4.9003903,-5 C 13.806679,5.5 16,7.7277435 16,10.5 c 0,0.365187 0.358109,0.658698 0.720703,0.576172 C 16.938888,11.026343 17.166346,11 17.400391,11 19.113365,11 20.5,12.406221 20.5,14.166016 c 0,1.759681 -1.386635,3.167968 -3.099609,3.167968 a 0.5,0.5 0 0 0 -0.5,0.5 0.5,0.5 0 0 0 0.5,0.5 C 19.663812,18.333984 21.5,16.45633 21.5,14.166016 21.5,11.875614 19.663812,10 17.400391,10 17.233109,10 17.074572,10.0348 16.912109,10.054688 16.676128,6.9692286 14.201531,4.5 11.099609,4.5 Z M 12,11.5 A 0.5,0.5 0 0 0 11.5,12 v 5.761719 l -1.390625,-1.441407 a 0.5,0.5 0 0 0 -0.7070312,-0.01367 0.5,0.5 0 0 0 -0.011719,0.707031 l 2.25,2.333984 a 0.5,0.5 0 0 0 0.0039,0.002 0.5,0.5 0 0 0 0.0059,0.0059 0.5,0.5 0 0 0 0.002,0.0039 0.5,0.5 0 0 0 0.148437,0.05859 0.5,0.5 0 0 0 0.01563,0.0059 0.5,0.5 0 0 0 0.179688,0.07422 A 0.5,0.5 0 0 0 12,19.5 a 0.5,0.5 0 0 0 0.0039,-0.002 0.5,0.5 0 0 0 0.179688,-0.07422 0.5,0.5 0 0 0 0.01563,-0.0059 0.5,0.5 0 0 0 0.148437,-0.05859 0.5,0.5 0 0 0 0.002,-0.0039 0.5,0.5 0 0 0 0.0059,-0.0059 0.5,0.5 0 0 0 0.0039,-0.002 l 2.25,-2.333984 a 0.5,0.5 0 0 0 -0.01172,-0.707031 0.5,0.5 0 0 0 -0.707031,0.01367 L 12.5,17.761719 V 12 A 0.5,0.5 0 0 0 12,11.5 Z"
     id="path2" />
</svg>
