<svg width="24" height="24" viewBox="0 0 24 24" fill="none" xmlns="http://www.w3.org/2000/svg">
<path d="M5.98242 17.0469C5.33073 17.0469 4.83626 16.8828 4.49902 16.5547C4.16634 16.2266 4 15.7389 4 15.0918V7.95508C4 7.30794 4.15951 6.82031 4.47852 6.49219C4.79753 6.16406 5.24186 6 5.81152 6H17.5283C18.18 6 18.6722 6.16406 19.0049 6.49219C19.3421 6.82031 19.5107 7.30794 19.5107 7.95508V15.0918C19.5107 15.7389 19.3512 16.2266 19.0322 16.5547C18.7132 16.8828 18.2666 17.0469 17.6924 17.0469H5.98242ZM5.95508 16.1514H17.5557C17.8883 16.1514 18.1458 16.0625 18.3281 15.8848C18.515 15.7025 18.6084 15.4382 18.6084 15.0918V7.96191C18.6084 7.61556 18.515 7.35124 18.3281 7.16895C18.1458 6.98665 17.8883 6.89551 17.5557 6.89551H5.95508C5.61784 6.89551 5.35807 6.98665 5.17578 7.16895C4.99349 7.35124 4.90234 7.61328 4.90234 7.95508V15.085C4.90234 15.4359 4.99349 15.7025 5.17578 15.8848C5.35807 16.0625 5.61784 16.1514 5.95508 16.1514ZM11.752 13.1846C11.5469 13.1846 11.3486 13.1458 11.1572 13.0684C10.9658 12.9863 10.779 12.8633 10.5967 12.6992L4.50586 7.2168L5.12109 6.60156L11.123 12.002C11.319 12.1842 11.5286 12.2754 11.752 12.2754C11.9707 12.2754 12.1803 12.1842 12.3809 12.002L18.376 6.60156L18.998 7.2168L12.9004 12.6992C12.7227 12.8633 12.5358 12.9863 12.3398 13.0684C12.1484 13.1458 11.9525 13.1846 11.752 13.1846ZM5.2168 16.2676L4.6084 15.6523L9.23633 11.0244L9.85156 11.6328L5.2168 16.2676ZM18.2939 16.2744L13.6455 11.6328L14.2676 11.0244L18.9092 15.6592L18.2939 16.2744Z" fill="#00493F"/>
</svg>
