<svg width="13" height="24" viewBox="0 0 13 24" fill="none" xmlns="http://www.w3.org/2000/svg">
<g id="Layer_1" clip-path="url(#clip0_2002_38)">
<path id="Vector" d="M8.45755 23.9998H4.05755C4.05755 23.8998 4.05755 23.7998 4.05755 23.6948V13.0548H0.802549C0.657549 13.0548 0.507549 13.0548 0.362549 13.0548V8.76484C0.409174 8.76761 0.455923 8.76761 0.502549 8.76484H3.86255C3.92299 8.76008 3.9831 8.75173 4.04255 8.73983V8.49984C4.04255 7.59483 4.04255 6.68983 4.04255 5.78483C4.04906 5.22324 4.10089 4.66309 4.19755 4.10983C4.36817 3.06797 4.87753 2.11141 5.64675 1.38829C6.41597 0.665172 7.40214 0.215827 8.45255 0.109834C9.52511 0.00733395 10.605 0.00733395 11.6775 0.109834C12.0476 0.109834 12.4176 0.174834 12.7826 0.204834V3.99983H12.4976C11.6576 3.99983 10.8125 3.99983 9.97255 4.04983C9.63689 4.04369 9.30956 4.15462 9.04679 4.36356C8.78401 4.5725 8.60219 4.86642 8.53255 5.19483C8.47914 5.38195 8.45056 5.57527 8.44755 5.76983C8.44755 6.71983 8.44755 7.67484 8.44755 8.62984C8.44214 8.68971 8.44214 8.74996 8.44755 8.80984H12.6276L12.0775 13.0748H8.44255V13.3548C8.44255 16.8315 8.44255 20.3065 8.44255 23.7798C8.44755 23.8448 8.45255 23.9198 8.45755 23.9998Z" fill="white"/>
</g>
<defs>
<clipPath id="clip0_2002_38">
<rect width="12.43" height="24" fill="white" transform="translate(0.362549)"/>
</clipPath>
</defs>
</svg>
