<svg width="13" height="14" viewBox="0 0 13 14" fill="none" xmlns="http://www.w3.org/2000/svg">
<mask id="path-1-inside-1_38_89111" fill="white">
<path fill-rule="evenodd" clip-rule="evenodd" d="M1 13V5.49239L6.49982 1.26163L12 5.49241V13H8V14H12H13V13V5L6.4998 0L0 5V13V14H1H5V13H1Z"/>
</mask>
<path d="M1 5.49239L0.390278 4.69978L0 5V5.49239H1ZM1 13H0V14H1V13ZM6.49982 1.26163L7.10952 0.468999L6.4998 -5.46572e-08L5.8901 0.469017L6.49982 1.26163ZM12 5.49241H13V5L12.6097 4.69978L12 5.49241ZM12 13V14H13V13H12ZM8 13V12H7V13H8ZM8 14H7V15H8V14ZM13 14V15H14V14H13ZM13 5H14V4.50759L13.6097 4.20737L13 5ZM6.4998 0L7.1095 -0.792633L6.49979 -1.26163L5.89008 -0.792615L6.4998 0ZM0 5L-0.609722 4.20739L-1 4.50761V5H0ZM0 14H-1V15H0V14ZM5 14V15H6V14H5ZM5 13H6V12H5V13ZM0 5.49239V13H2V5.49239H0ZM5.8901 0.469017L0.390278 4.69978L1.60972 6.28501L7.10954 2.05425L5.8901 0.469017ZM12.6097 4.69978L7.10952 0.468999L5.89012 2.05427L11.3903 6.28504L12.6097 4.69978ZM13 13V5.49241H11V13H13ZM8 14H12V12H8V14ZM7 13V14H9V13H7ZM8 15H12V13H8V15ZM12 15H13V13H12V15ZM14 14V13H12V14H14ZM14 13V5H12V13H14ZM13.6097 4.20737L7.1095 -0.792633L5.89011 0.792633L12.3903 5.79263L13.6097 4.20737ZM5.89008 -0.792615L-0.609722 4.20739L0.609722 5.79261L7.10953 0.792615L5.89008 -0.792615ZM-1 5V13H1V5H-1ZM-1 13V14H1V13H-1ZM0 15H1V13H0V15ZM1 15H5V13H1V15ZM6 14V13H4V14H6ZM1 14H5V12H1V14Z" fill="#979797" mask="url(#path-1-inside-1_38_89111)"/>
</svg>
