<svg width="32" height="32" viewBox="0 0 32 32" fill="none" xmlns="http://www.w3.org/2000/svg">
<path d="M15.3333 29.9997C13.4962 29.9997 11.7704 29.6517 10.1559 28.9558C8.55068 28.2692 7.1357 27.3135 5.91093 26.0887C4.68615 24.864 3.72582 23.449 3.02992 21.8438C2.34331 20.2293 2 18.5035 2 16.6663C2 14.8292 2.34331 13.108 3.02992 11.5028C3.72582 9.88833 4.68615 8.46871 5.91093 7.24393C7.1357 6.01916 8.55068 5.06346 10.1559 4.37685C11.7704 3.68095 13.4962 3.33301 15.3333 3.33301C17.1705 3.33301 18.8917 3.68095 20.4969 4.37685C22.1113 5.06346 23.531 6.01916 24.7557 7.24393C25.9805 8.46871 26.9362 9.88833 27.6228 11.5028C28.3187 13.108 28.6667 14.8292 28.6667 16.6663C28.6667 18.5035 28.3187 20.2293 27.6228 21.8438C26.9362 23.449 25.9805 24.864 24.7557 26.0887C23.531 27.3135 22.1113 28.2692 20.4969 28.9558C18.8917 29.6517 17.1705 29.9997 15.3333 29.9997ZM12.9673 24.2098H18.4788C18.7293 24.2098 18.9381 24.1263 19.1051 23.9593C19.2814 23.7923 19.3695 23.5789 19.3695 23.3191C19.3695 23.0778 19.2814 22.8737 19.1051 22.7067C18.9381 22.5397 18.7293 22.4562 18.4788 22.4562H16.6973V15.3163C16.6973 14.9916 16.6138 14.7271 16.4468 14.523C16.2797 14.3096 16.0431 14.2029 15.737 14.2029H13.1621C12.9116 14.2029 12.6982 14.291 12.5219 14.4673C12.3456 14.6343 12.2575 14.8385 12.2575 15.0797C12.2575 15.3302 12.3456 15.5436 12.5219 15.7199C12.6982 15.8869 12.9116 15.9704 13.1621 15.9704H14.7209V22.4562H12.9673C12.7075 22.4562 12.4894 22.5397 12.3132 22.7067C12.1369 22.8737 12.0487 23.0778 12.0487 23.3191C12.0487 23.5789 12.1369 23.7923 12.3132 23.9593C12.4894 24.1263 12.7075 24.2098 12.9673 24.2098ZM15.2359 11.8925C15.6998 11.8925 16.0895 11.7301 16.405 11.4054C16.7298 11.0806 16.8921 10.6817 16.8921 10.2084C16.8921 9.74451 16.7298 9.35481 16.405 9.03934C16.0895 8.71459 15.6998 8.55221 15.2359 8.55221C14.772 8.55221 14.3776 8.71459 14.0529 9.03934C13.7374 9.35481 13.5797 9.74451 13.5797 10.2084C13.5797 10.6817 13.7374 11.0806 14.0529 11.4054C14.3776 11.7301 14.772 11.8925 15.2359 11.8925Z" fill="white"/>
</svg>
