<svg width="24" height="24" viewBox="0 0 24 24" fill="none" xmlns="http://www.w3.org/2000/svg">
<rect width="24" height="24" rx="12" fill="#00493F"/>
<path d="M15.0407 6.26333C15.7564 6.26623 16.442 6.55324 16.9482 7.06183C17.4543 7.57042 17.7399 8.25938 17.7428 8.97863V15.0187C17.7399 15.7379 17.4543 16.4269 16.9482 16.9355C16.442 17.4441 15.7564 17.7311 15.0407 17.734H8.95934C8.24358 17.7311 7.55796 17.4441 7.05183 16.9355C6.54571 16.4269 6.26009 15.7379 6.25721 15.0187V8.97863C6.26009 8.25938 6.54571 7.57042 7.05183 7.06183C7.55796 6.55324 8.24358 6.26623 8.95934 6.26333H15.0407ZM15.0407 5.00041H8.95934C6.78183 5.00041 5 6.79295 5 8.97904V15.0187C5 17.2068 6.78385 18.9973 8.95934 18.9973H15.0407C17.2182 18.9973 19 17.2048 19 15.0187V8.97863C19 6.7905 17.2182 5 15.0407 5V5.00041Z" fill="white"/>
<path d="M11.997 9.64183C12.4611 9.64183 12.9147 9.7801 13.3005 10.0392C13.6863 10.2982 13.987 10.6664 14.1646 11.0972C14.3422 11.528 14.3886 12.002 14.2981 12.4594C14.2076 12.9167 13.9841 13.3368 13.656 13.6665C13.3279 13.9962 12.9098 14.2208 12.4547 14.3117C11.9996 14.4027 11.5279 14.356 11.0992 14.1776C10.6705 13.9991 10.3041 13.697 10.0463 13.3092C9.78845 12.9215 9.65085 12.4657 9.65085 11.9994C9.6516 11.3744 9.89903 10.7752 10.3389 10.3332C10.7787 9.89122 11.375 9.64259 11.997 9.64183ZM11.997 8.37891C11.2844 8.37891 10.5878 8.59125 9.99531 8.98908C9.40281 9.3869 8.94101 9.95235 8.6683 10.6139C8.3956 11.2755 8.32425 12.0035 8.46327 12.7058C8.6023 13.4081 8.94545 14.0532 9.44933 14.5595C9.95322 15.0659 10.5952 15.4107 11.2941 15.5504C11.993 15.6901 12.7175 15.6184 13.3758 15.3444C14.0342 15.0703 14.5969 14.6063 14.9928 14.0109C15.3887 13.4155 15.6 12.7155 15.6 11.9994C15.6 11.0392 15.2204 10.1183 14.5447 9.43933C13.869 8.76035 12.9526 8.37891 11.997 8.37891Z" fill="white"/>
<path d="M15.6743 9.07809C16.1461 9.07809 16.5285 8.69378 16.5285 8.21971C16.5285 7.74564 16.1461 7.36133 15.6743 7.36133C15.2025 7.36133 14.8201 7.74564 14.8201 8.21971C14.8201 8.69378 15.2025 9.07809 15.6743 9.07809Z" fill="white"/>
</svg>
