<svg width="25" height="24" viewBox="0 0 25 24" fill="none" xmlns="http://www.w3.org/2000/svg">
<path d="M19.1612 24H6.1281L5.92798 23.955C4.66579 23.8235 3.4814 23.2822 2.55587 22.414C1.93736 21.8474 1.44693 21.1553 1.11734 20.384C0.787753 19.6126 0.626608 18.7798 0.644679 17.9412V6.0788C0.647062 5.82971 0.662089 5.5809 0.689705 5.33333C0.832865 3.89547 1.49882 2.56018 2.56122 1.58077C3.62362 0.601369 5.00857 0.0459941 6.45331 0.0200125C10.5759 -0.00667084 14.7001 -0.00667084 18.826 0.0200125C20.0461 0.0304084 21.2324 0.421772 22.2191 1.13939C23.2059 1.85702 23.9437 2.86503 24.3295 4.02251C24.4649 4.50172 24.5751 4.98769 24.6597 5.47842V18.5316C24.6416 18.5989 24.6282 18.6675 24.6197 18.7367C24.4936 19.9047 24.0215 21.0084 23.2637 21.9061C22.506 22.8038 21.4972 23.4545 20.367 23.7749C19.9618 23.8899 19.5565 23.94 19.1612 24ZM3.04117 11.9925C3.04117 13.9537 3.04117 15.9149 3.04117 17.8762C3.03626 18.141 3.05637 18.4056 3.10122 18.6667C3.23963 19.5093 3.68112 20.2723 4.34266 20.8122C5.0042 21.3521 5.8402 21.6318 6.69346 21.5985H18.5759C18.8258 21.5994 19.0753 21.5777 19.3214 21.5335C20.1464 21.3949 20.8946 20.9656 21.4305 20.3232C21.9665 19.6808 22.2547 18.8678 22.2432 18.0313C22.2432 16.9906 22.2432 15.955 22.2432 14.9143C22.2432 11.9525 22.2432 8.99062 22.2432 6.02877C22.2601 5.55547 22.1809 5.08366 22.0103 4.64186C21.8397 4.20006 21.5812 3.79746 21.2506 3.45839C20.9199 3.11933 20.5239 2.85084 20.0866 2.66918C19.6492 2.48753 19.1795 2.39646 18.706 2.4015C14.6584 2.4015 10.6109 2.4015 6.56338 2.4015C5.89222 2.40622 5.23754 2.60993 4.6822 2.98687C4.1669 3.31102 3.745 3.76391 3.45811 4.30085C3.17121 4.83779 3.02923 5.44024 3.04618 6.04878C3.03117 8.02502 3.04117 10.0163 3.04117 11.9925Z" fill="white"/>
<path d="M18.6459 11.9923C18.6459 13.1798 18.2938 14.3405 17.6341 15.3278C16.9744 16.3152 16.0368 17.0847 14.9397 17.5391C13.8427 17.9935 12.6355 18.1124 11.4709 17.8807C10.3063 17.6491 9.23653 17.0773 8.39689 16.2376C7.55725 15.398 6.98545 14.3282 6.75379 13.1636C6.52213 11.999 6.64103 10.7918 7.09544 9.6948C7.54985 8.59776 8.31937 7.6601 9.30668 7.0004C10.294 6.3407 11.4548 5.98859 12.6422 5.98859C13.4328 5.98056 14.2171 6.13037 14.9492 6.42924C15.6812 6.72812 16.3463 7.17005 16.9054 7.72915C17.4645 8.28826 17.9064 8.95331 18.2053 9.68534C18.5042 10.4174 18.654 11.2017 18.6459 11.9923ZM16.2494 11.9923C16.2514 11.2805 16.0424 10.5841 15.6489 9.99095C15.2554 9.3978 14.695 8.93454 14.0384 8.65964C13.3818 8.38474 12.6585 8.31053 11.9597 8.44638C11.261 8.58222 10.6182 8.92204 10.1124 9.42292C9.60665 9.9238 9.26061 10.5633 9.11799 11.2607C8.97537 11.9581 9.04257 12.6821 9.31108 13.3413C9.5796 14.0005 10.0374 14.5654 10.6267 14.9647C11.216 15.3639 11.9104 15.5796 12.6222 15.5846C13.0952 15.5939 13.5653 15.5088 14.005 15.3342C14.4447 15.1596 14.8451 14.899 15.1829 14.5678C15.5207 14.2365 15.789 13.8412 15.9721 13.405C16.1553 12.9688 16.2495 12.5005 16.2494 12.0274V11.9923Z" fill="white"/>
<path d="M19.8667 6.01932C19.8657 6.25723 19.794 6.48947 19.6608 6.68659C19.5276 6.8837 19.3388 7.0368 19.1185 7.12645C18.8981 7.21611 18.6561 7.23828 18.4231 7.19016C18.1901 7.14203 17.9766 7.02578 17.8098 6.85615C17.643 6.68652 17.5304 6.47117 17.4861 6.2374C17.4419 6.00364 17.4681 5.76201 17.5615 5.54318C17.6548 5.32434 17.811 5.13816 18.0103 5.00826C18.2097 4.87836 18.4431 4.8106 18.681 4.81357C18.9973 4.81882 19.2988 4.94817 19.5207 5.17373C19.7425 5.39928 19.8667 5.70298 19.8667 6.01932Z" fill="white"/>
</svg>
