<?xml version="1.0" encoding="UTF-8" standalone="no"?>
<svg
   width="13"
   height="16"
   viewBox="0 0 13 16"
   fill="none"
   version="1.1"
   id="svg2"
   sodipodi:docname="location.svg"
   inkscape:version="1.3.2 (091e20e, 2023-11-25, custom)"
   xmlns:inkscape="http://www.inkscape.org/namespaces/inkscape"
   xmlns:sodipodi="http://sodipodi.sourceforge.net/DTD/sodipodi-0.dtd"
   xmlns="http://www.w3.org/2000/svg"
   xmlns:svg="http://www.w3.org/2000/svg">
  <sodipodi:namedview
     id="namedview2"
     pagecolor="#ffffff"
     bordercolor="#000000"
     borderopacity="0.25"
     inkscape:showpageshadow="2"
     inkscape:pageopacity="0.0"
     inkscape:pagecheckerboard="0"
     inkscape:deskcolor="#d1d1d1"
     inkscape:zoom="50.875"
     inkscape:cx="6.5061425"
     inkscape:cy="8"
     inkscape:window-width="1920"
     inkscape:window-height="1010"
     inkscape:window-x="-6"
     inkscape:window-y="-6"
     inkscape:window-maximized="1"
     inkscape:current-layer="svg2" />
  <g
     clip-path="url(#clip0_518_6229)"
     id="g2"
     transform="matrix(1.0284094,0,0,1.0559348,-0.12569325,-0.46713316)">
    <path
       style="color:#000000;fill:#c59b6d;stroke-linecap:round;stroke-linejoin:round;-inkscape-stroke:none"
       d="m 6.5,2.9042969 c -1.9003597,0 -3.4785156,1.4714658 -3.4785156,3.3105468 0,1.8390811 1.5781559,3.3125001 3.4785156,3.3125001 1.9003597,0 3.4785156,-1.4734169 3.4785156,-3.3125001 C 9.9785156,4.3757606 8.4003597,2.9042969 6.5,2.9042969 Z m 0,1 c 1.390337,0 2.4785156,1.0441331 2.4785156,2.3105468 0,1.2664138 -1.0881786,2.3125001 -2.4785156,2.3125001 -1.390337,0 -2.4785156,-1.0460842 -2.4785156,-2.3125001 0,-1.2664158 1.0881786,-2.3105468 2.4785156,-2.3105468 z"
       id="path1" />
    <path
       style="color:#000000;fill:#c59b6d;stroke-linecap:round;stroke-linejoin:round;-inkscape-stroke:none"
       d="M 6.5,0.5 C 4.9147711,0.5 3.3927082,1.1006539 2.265625,2.1777344 1.1385407,3.2548049 0.5,4.7233274 0.5,6.2558594 c -2.2573e-4,0.5158505 0.074671,1.0292843 0.22070312,1.5253906 1.8316e-4,6.222e-4 -1.8337e-4,0.00133 0,0.00195 C 0.88829109,8.390176 1.1629917,8.96436 1.5332031,9.4804688 a 0.50005,0.50005 0 0 0 0.013672,0.017578 l 4.5605469,5.8105471 a 0.50005,0.50005 0 0 0 0.7851562,0 L 11.453125,9.4980469 a 0.50005,0.50005 0 0 0 0.01367,-0.017578 C 11.838779,8.9619378 12.113878,8.3854463 12.28125,7.7753906 12.426127,7.2811141 12.500219,6.7696755 12.5,6.2558594 12.5,4.7233179 11.861399,3.2547999 10.734375,2.1777344 9.6072829,1.1006559 8.0852289,0.5 6.5,0.5 Z m 0,1 c 1.3321482,0 2.6071429,0.5060911 3.542969,1.4003906 C 10.978742,3.7946832 11.5,5.0004637 11.5,6.2558594 11.500179,6.6763009 11.43973,7.0948167 11.320313,7.5 a 0.50005,0.50005 0 0 0 -0.002,0.00977 C 11.183299,8.0026957 10.960177,8.47022 10.658203,8.8925781 L 6.5,14.191406 2.3417969,8.8925781 C 2.0398299,8.4701929 1.8166725,8.002657 1.6816406,7.5097656 A 0.50005,0.50005 0 0 0 1.6796875,7.5 C 1.5602639,7.0948259 1.499816,6.676301 1.5,6.2558594 1.5,5.0004541 2.0212176,3.7946781 2.9570313,2.9003906 3.892846,2.0060931 5.1678518,1.5 6.5,1.5 Z"
       id="path2" />
  </g>
  <defs
     id="defs2">
    <clipPath
       id="clip0_518_6229">
      <rect
         width="13"
         height="16"
         fill="white"
         id="rect2" />
    </clipPath>
  </defs>
</svg>
