<?xml version="1.0" encoding="UTF-8" standalone="no"?>
<svg
   width="17"
   height="14"
   viewBox="0 0 17 14"
   fill="none"
   version="1.1"
   id="svg2"
   sodipodi:docname="mail.svg"
   inkscape:version="1.3.2 (091e20e, 2023-11-25, custom)"
   xmlns:inkscape="http://www.inkscape.org/namespaces/inkscape"
   xmlns:sodipodi="http://sodipodi.sourceforge.net/DTD/sodipodi-0.dtd"
   xmlns="http://www.w3.org/2000/svg"
   xmlns:svg="http://www.w3.org/2000/svg">
  <sodipodi:namedview
     id="namedview2"
     pagecolor="#ffffff"
     bordercolor="#000000"
     borderopacity="0.25"
     inkscape:showpageshadow="2"
     inkscape:pageopacity="0.0"
     inkscape:pagecheckerboard="0"
     inkscape:deskcolor="#d1d1d1"
     inkscape:zoom="58.142857"
     inkscape:cx="8.4963145"
     inkscape:cy="7"
     inkscape:window-width="1920"
     inkscape:window-height="1010"
     inkscape:window-x="-6"
     inkscape:window-y="-6"
     inkscape:window-maximized="1"
     inkscape:current-layer="svg2" />
  <g
     clip-path="url(#clip0_2001_1579)"
     id="g2">
    <path
       style="color:#000000;fill:#c59b6d;stroke-linecap:round;stroke-linejoin:round;-inkscape-stroke:none"
       d="M 0.83398438,0.63085937 A 0.50005,0.50005 0 0 0 0.52148437,1.5214844 l 7.50000003,6 a 0.50005,0.50005 0 0 0 0.625,0 l 7.4999996,-6 a 0.50005,0.50005 0 0 0 -0.3125,-0.89062503 z M 2.2597656,1.6308594 H 14.408203 l -6.0742186,4.859375 z"
       id="path1" />
    <path
       style="color:#000000;fill:#c59b6d;stroke-linecap:round;stroke-linejoin:round;-inkscape-stroke:none"
       d="m 0.83398438,0.5 a 0.50005,0.50005 0 0 0 -0.5,0.5 v 12 a 0.50005,0.50005 0 0 0 0.5,0.5 H 15.833984 a 0.50005,0.50005 0 0 0 0.5,-0.5 V 1 a 0.50005,0.50005 0 0 0 -0.5,-0.5 z m 0.50000002,1 H 15.333984 v 11 H 1.3339844 Z"
       id="path2" />
  </g>
  <defs
     id="defs2">
    <clipPath
       id="clip0_2001_1579">
      <rect
         width="16"
         height="13"
         fill="white"
         transform="translate(0.333374 0.5)"
         id="rect2" />
    </clipPath>
  </defs>
</svg>
