<svg width="32" height="32" viewBox="0 0 32 32" fill="none" xmlns="http://www.w3.org/2000/svg">
<g id="Frame 1" clip-path="url(#clip0_12_1631)">
<g id="Frame 597">
<g id="Frame 594">
<g id="Frame 591">
<g id="Phone_fill">
<path id="Vector 189" d="M6.90616 4.46226L8.42561 2.94281C8.94631 2.42211 9.79053 2.42211 10.3112 2.94281L14.3203 6.95193C14.841 7.47263 14.841 8.31685 14.3203 8.83754L11.5797 11.5782C11.1392 12.0187 11.03 12.6916 11.3086 13.2487C12.919 16.4695 15.5305 19.081 18.7513 20.6914C19.3084 20.97 19.9813 20.8608 20.4218 20.4203L23.1625 17.6797C23.6832 17.159 24.5274 17.159 25.0481 17.6797L29.0572 21.6888C29.5779 22.2095 29.5779 23.0537 29.0572 23.5744L27.5377 25.0938C24.7226 27.909 20.2659 28.2257 17.0809 25.837L14.3469 23.7865C12.0222 22.0429 9.95706 19.9778 8.21353 17.6531L6.16302 14.9191C3.7743 11.7341 4.09103 7.27739 6.90616 4.46226Z" fill="black"/>
</g>
</g>
</g>
</g>
</g>

</svg>
