<svg width="24" height="24" viewBox="0 0 24 24" fill="none" xmlns="http://www.w3.org/2000/svg">
<path d="M16.3125 19.7892C15.6094 19.7892 14.8672 19.6459 14.0859 19.3595C13.3047 19.0782 12.5104 18.6642 11.7031 18.1173C10.901 17.5704 10.1146 16.9115 9.34375 16.1407C8.57292 15.3699 7.91406 14.5834 7.36719 13.7813C6.82031 12.9741 6.40625 12.1798 6.125 11.3985C5.84375 10.6121 5.70312 9.86988 5.70312 9.17197C5.70312 8.76051 5.74219 8.39072 5.82031 8.06259C5.89844 7.72926 6.02083 7.42197 6.1875 7.14072C6.35938 6.85947 6.58333 6.59384 6.85938 6.34384C6.88542 6.32301 6.91146 6.29957 6.9375 6.27353C6.96875 6.24749 7 6.22145 7.03125 6.1954C7.51562 5.7579 7.98438 5.54176 8.4375 5.54697C8.69271 5.54697 8.9375 5.62249 9.17188 5.77353C9.41146 5.91936 9.63802 6.14853 9.85156 6.46103L11.3047 8.55478C11.487 8.8152 11.5677 9.08603 11.5469 9.36728C11.526 9.64332 11.4453 9.89332 11.3047 10.1173L10.625 11.1798C10.5104 11.3621 10.5 11.5366 10.5938 11.7032C10.7083 11.9063 10.8906 12.1616 11.1406 12.4688C11.3906 12.7761 11.6667 13.0808 11.9688 13.3829C12.1615 13.586 12.3698 13.7865 12.5938 13.9845C12.8177 14.1772 13.026 14.349 13.2188 14.5001C13.4115 14.6459 13.5625 14.7527 13.6719 14.8204C13.7917 14.8933 13.901 14.9324 14 14.9376C14.1042 14.9376 14.2135 14.9089 14.3281 14.8517L15.4844 14.297C15.8281 14.1303 16.1302 14.0548 16.3906 14.0704C16.651 14.0808 16.9219 14.1798 17.2031 14.3673L19.0312 15.6251C19.3438 15.8386 19.5729 16.0678 19.7188 16.3126C19.8698 16.5522 19.9453 16.797 19.9453 17.047C19.9453 17.2761 19.8906 17.5079 19.7812 17.7423C19.6771 17.9767 19.5156 18.2188 19.2969 18.4688C19.2656 18.4949 19.237 18.5209 19.2109 18.547C19.1901 18.5782 19.1667 18.6069 19.1406 18.6329C18.7656 19.0444 18.3542 19.3386 17.9062 19.5157C17.4583 19.698 16.9271 19.7892 16.3125 19.7892ZM16.3125 18.7657C16.724 18.7605 17.1042 18.685 17.4531 18.5392C17.8021 18.3985 18.1094 18.1824 18.375 17.8907C18.3958 17.8647 18.4115 17.8438 18.4219 17.8282C18.4375 17.8074 18.4557 17.7865 18.4766 17.7657C18.6953 17.5209 18.8047 17.2787 18.8047 17.0392C18.8047 16.9298 18.7786 16.8282 18.7266 16.7345C18.6797 16.6355 18.599 16.5496 18.4844 16.4767L16.7578 15.3204C16.6328 15.2371 16.5078 15.1876 16.3828 15.172C16.2578 15.1563 16.125 15.185 15.9844 15.2579L14.7266 15.8517C14.4141 16.0027 14.1458 16.0678 13.9219 16.047C13.6979 16.0209 13.4792 15.9324 13.2656 15.7813C13.1042 15.672 12.9062 15.5235 12.6719 15.336C12.4375 15.1433 12.1953 14.9376 11.9453 14.7188C11.6953 14.5001 11.4714 14.2892 11.2734 14.086C10.9714 13.7787 10.6719 13.4428 10.375 13.0782C10.0781 12.7136 9.83333 12.3959 9.64062 12.1251C9.48438 11.9116 9.39844 11.7032 9.38281 11.5001C9.36719 11.297 9.4349 11.073 9.58594 10.8282L10.3203 9.64072C10.4714 9.40113 10.4844 9.1902 10.3594 9.0079L9.01562 7.00009C8.875 6.78655 8.6849 6.67978 8.44531 6.67978C8.33594 6.67978 8.21875 6.70843 8.09375 6.76572C7.97396 6.82301 7.85156 6.90374 7.72656 7.0079C7.70573 7.02874 7.6849 7.04697 7.66406 7.06259C7.64323 7.07822 7.6224 7.09645 7.60156 7.11728C7.3099 7.3777 7.09115 7.68238 6.94531 8.03134C6.80469 8.3803 6.72917 8.7579 6.71875 9.16415C6.70833 9.79436 6.85156 10.4741 7.14844 11.2032C7.45052 11.9272 7.85938 12.6537 8.375 13.3829C8.89062 14.1121 9.47135 14.7996 10.1172 15.4454C10.7578 16.086 11.4349 16.6589 12.1484 17.1642C12.8672 17.6642 13.5833 18.06 14.2969 18.3517C15.0156 18.6433 15.6875 18.7813 16.3125 18.7657Z" fill="#00493F"/>
</svg>
