<?xml version="1.0" encoding="UTF-8" standalone="no"?>
<svg
   width="17"
   height="16"
   viewBox="0 0 17 16"
   fill="none"
   version="1.1"
   id="svg1"
   sodipodi:docname="phone.svg"
   inkscape:version="1.3.2 (091e20e, 2023-11-25, custom)"
   xmlns:inkscape="http://www.inkscape.org/namespaces/inkscape"
   xmlns:sodipodi="http://sodipodi.sourceforge.net/DTD/sodipodi-0.dtd"
   xmlns="http://www.w3.org/2000/svg"
   xmlns:svg="http://www.w3.org/2000/svg">
  <sodipodi:namedview
     id="namedview1"
     pagecolor="#ffffff"
     bordercolor="#000000"
     borderopacity="0.25"
     inkscape:showpageshadow="2"
     inkscape:pageopacity="0.0"
     inkscape:pagecheckerboard="0"
     inkscape:deskcolor="#d1d1d1"
     inkscape:zoom="50.875"
     inkscape:cx="8.4914005"
     inkscape:cy="8"
     inkscape:window-width="1920"
     inkscape:window-height="1010"
     inkscape:window-x="-6"
     inkscape:window-y="-6"
     inkscape:window-maximized="1"
     inkscape:current-layer="svg1" />
  <g
     clip-path="url(#clip0_2001_1574)"
     id="g1">
    <path
       style="color:#000000;fill:#c59b6d;stroke-linecap:round;stroke-linejoin:round;-inkscape-stroke:none"
       d="m 3.84375,-0.015625 c -0.2052924,0 -0.4093096,0.04136901 -0.5976562,0.12304687 C 3.0577409,0.18909593 2.8883464,0.30912911 2.7480469,0.45898438 L 1.7597656,1.4472656 a 0.50005,0.50005 0 0 0 0,0.00195 C 1.0177871,2.1953582 0.53304996,3.1586065 0.37695313,4.1992187 0.22086016,5.2398348 0.40022035,6.3033786 0.890625,7.234375 a 0.50005,0.50005 0 0 0 0.001953,0.00195 C 1.2054048,7.8214079 1.5469758,8.3913472 1.9179687,8.9414063 2.6485303,10.02839 3.4906927,11.03621 4.4277344,11.951172 c 0.9044639,0.917911 1.8984695,1.744359 2.9667968,2.464844 0.5500905,0.370372 1.1184944,0.712241 1.7031251,1.02539 a 0.50005,0.50005 0 0 0 0.00391,0.002 c 0.9321625,0.489072 1.9964465,0.667857 3.0371095,0.509766 1.040678,-0.158093 2.003207,-0.644834 2.748047,-1.388672 l 0.990234,-0.990234 c 0.147616,-0.140115 0.265432,-0.308994 0.345703,-0.496094 0.08026,-0.186912 0.121094,-0.3883 0.121094,-0.591797 0,-0.203446 -0.04091,-0.404907 -0.121094,-0.591797 -0.08023,-0.186857 -0.197958,-0.355856 -0.345703,-0.496093 L 13.789063,9.3085938 C 13.6487,9.158608 13.479222,9.0406406 13.291016,8.9589844 c -0.18834,-0.081649 -0.392361,-0.125 -0.597657,-0.125 -0.205245,0 -0.409317,0.043351 -0.597656,0.125 -0.188449,0.081696 -0.357822,0.1999316 -0.498047,0.3496094 l -0.800781,0.8105472 a 0.50005,0.50005 0 0 0 -0.0078,0.0078 c -0.08461,0.08946 -0.19744,0.144133 -0.320313,0.154297 -0.123075,0.01018 -0.245445,-0.02517 -0.34375,-0.09961 a 0.50005,0.50005 0 0 0 -0.002,-0.002 C 9.3711744,9.6172774 8.6614094,9.0024233 7.9980469,8.3378906 a 0.50005,0.50005 0 0 0 -0.00391,-0.00195 C 7.3209002,7.6716871 6.7041849,6.9527582 6.1484375,6.1875 a 0.50005,0.50005 0 0 0 -0.00195,-0.00195 C 6.0741109,6.0870701 6.0397189,5.9654659 6.0507812,5.84375 6.0618481,5.7220444 6.1180915,5.6091952 6.2070312,5.5253906 A 0.50005,0.50005 0 0 0 6.21875,5.5117187 L 7.0195312,4.703125 7.0078125,4.7128906 C 7.1552921,4.5727753 7.2732508,4.4037565 7.3535156,4.2167969 7.433745,4.0298849 7.4746094,3.8284664 7.4746094,3.625 c 0,-0.2034664 -0.040861,-0.4029229 -0.1210938,-0.5898437 a 0.50005,0.50005 0 0 0 0,-0.00195 C 7.273251,2.8462589 7.1552921,2.6791778 7.0078125,2.5390625 L 4.9375,0.45898438 C 4.7971884,0.30911613 4.6277817,0.18909191 4.4394531,0.10742187 4.2511087,0.02575147 4.0490374,-0.015625 3.84375,-0.015625 Z m 0,1 c 0.068432,0 0.1364234,0.0137861 0.1992187,0.0410156 0.062791,0.02723 0.1192475,0.067234 0.1660157,0.1171875 a 0.50005,0.50005 0 0 0 0.00977,0.011719 l 2.0898437,2.0996094 a 0.50005,0.50005 0 0 0 0.00977,0.00977 c 0.04918,0.046724 0.088479,0.1017469 0.1152343,0.1640625 0.026767,0.062359 0.041016,0.1294523 0.041016,0.1972656 0,0.067813 -0.014245,0.1348978 -0.041016,0.1972656 -0.026755,0.06232 -0.066054,0.1192912 -0.1152343,0.1660157 A 0.50005,0.50005 0 0 0 6.3066406,4 L 5.5195312,4.796875 c -0.0011,0.00103 -8.61e-4,0.00287 -0.00195,0.00391 -0.2645375,0.2507717 -0.4298738,0.588077 -0.4628906,0.9511719 a 0.50005,0.50005 0 0 0 0,0.00195 c -0.033138,0.3646037 0.06835,0.7284348 0.2851562,1.0234375 0.5874714,0.8086852 1.2416014,1.5675089 1.953125,2.2695313 0.696091,0.6970312 1.4397391,1.34349 2.2285157,1.933594 0.2944348,0.222959 0.6613716,0.329251 1.0292966,0.298828 0.367927,-0.03044 0.711055,-0.196505 0.964844,-0.464844 l 0.802734,-0.8125 a 0.50005,0.50005 0 0 0 0.0098,-0.00977 C 12.3751,9.9420454 12.43139,9.9022034 12.494141,9.875 c 0.06286,-0.027251 0.130864,-0.041016 0.199218,-0.041016 0.06851,0 0.136359,0.013764 0.199219,0.041016 0.06279,0.027244 0.119379,0.067353 0.166016,0.1171875 a 0.50005,0.50005 0 0 0 0.01172,0.011719 l 2.109375,2.111328 a 0.50005,0.50005 0 0 0 0.0098,0.0078 c 0.04905,0.04656 0.08847,0.103673 0.115235,0.166016 0.02682,0.06251 0.03906,0.129512 0.03906,0.197265 0,0.0679 -0.01232,0.134978 -0.03906,0.197266 -0.02673,0.0623 -0.06605,0.117378 -0.115235,0.164062 a 0.50005,0.50005 0 0 0 -0.0098,0.0098 l -1,1 c -0.59416,0.593361 -1.361286,0.981315 -2.191407,1.107422 -0.830135,0.126109 -1.678299,-0.01612 -2.4218747,-0.40625 C 9.0128082,14.261901 8.4741693,13.936753 7.953125,13.585938 6.9399144,12.902624 5.9964062,12.120487 5.1386719,11.25 a 0.50005,0.50005 0 0 0 -0.00586,-0.0078 C 4.2418489,10.373109 3.4422704,9.4159055 2.7480469,8.3828125 a 0.50005,0.50005 0 0 0 0,-0.00195 C 2.3966408,7.8598411 2.0717817,7.3217243 1.7753906,6.7675781 1.3842022,6.0249362 1.2407216,5.1777383 1.3652344,4.3476562 1.4897513,3.5175703 1.8768899,2.7494761 2.46875,2.1542969 l 0.9980469,-1 a 0.50005,0.50005 0 0 0 0.011719,-0.011719 C 3.525296,1.0926116 3.5817443,1.0526165 3.6445313,1.0253906 3.7073044,0.9981686 3.7753027,0.984375 3.84375,0.984375 Z"
       id="path1" />
  </g>
  <defs
     id="defs1">
    <clipPath
       id="clip0_2001_1574">
      <rect
         width="16"
         height="16"
         fill="white"
         transform="translate(0.333374)"
         id="rect1" />
    </clipPath>
  </defs>
</svg>
