<?xml version="1.0" encoding="UTF-8" standalone="no"?>
<svg
   width="26"
   height="26"
   viewBox="0 0 26 26"
   fill="none"
   version="1.1"
   id="svg1"
   sodipodi:docname="Vector(1).svg"
   inkscape:version="1.3.2 (091e20ef0f, 2023-11-25, custom)"
   xmlns:inkscape="http://www.inkscape.org/namespaces/inkscape"
   xmlns:sodipodi="http://sodipodi.sourceforge.net/DTD/sodipodi-0.dtd"
   xmlns="http://www.w3.org/2000/svg"
   xmlns:svg="http://www.w3.org/2000/svg">
  <defs
     id="defs1" />
  <sodipodi:namedview
     id="namedview1"
     pagecolor="#ffffff"
     bordercolor="#000000"
     borderopacity="0.25"
     inkscape:showpageshadow="2"
     inkscape:pageopacity="0.0"
     inkscape:pagecheckerboard="0"
     inkscape:deskcolor="#d1d1d1"
     inkscape:zoom="31.423077"
     inkscape:cx="13"
     inkscape:cy="13"
     inkscape:window-width="1920"
     inkscape:window-height="1021"
     inkscape:window-x="0"
     inkscape:window-y="92"
     inkscape:window-maximized="1"
     inkscape:current-layer="svg1" />
  <path
     style="color:#000000;fill:#ffffff;stroke-linejoin:round;-inkscape-stroke:none"
     d="M 5.8476562,0.5 A 1.0001,1.0001 0 0 0 5.1230469,0.81054688 C 4.8036325,1.1459399 4.4812857,1.4796132 4.1777344,1.7890625 3.5547336,2.3973033 2.9577375,3.0007043 2.359375,3.578125 1.5250417,4.3666199 1.00219,5.430491 0.88867188,6.5722656 L 0.90625,6.4648437 a 1.0001,1.0001 0 0 0 -0.0625,0.3339844 v 0.9453125 a 1.0001,1.0001 0 0 0 0.0234375,0.21875 c 0.0477297,0.214273 0.0175781,0.1932624 0.0175781,-0.042969 A 1.0001,1.0001 0 0 0 0.90625,8.1289063 c 0.0873783,0.4087436 0.1533453,0.9132112 0.3183594,1.46875 a 1.0001,1.0001 0 0 0 0.00586,0.025391 c 0.5261309,1.6156061 1.2931363,3.1429751 2.2714844,4.5332031 1.6018891,2.361062 3.498047,4.510157 5.6425782,6.394531 1.6539317,1.525825 3.5187477,2.807159 5.5371097,3.804688 0.0013,6.59e-4 0.0026,0.0013 0.0039,0.002 1.223433,0.626723 2.558979,1.003932 3.929687,1.115234 0.73366,0.07181 1.475313,-0.01268 2.171875,-0.253906 0.6998,-0.242344 1.338082,-0.63483 1.871094,-1.148438 a 1.0001,1.0001 0 0 0 0.0059,-0.0059 c 0.976584,-0.957031 1.93045,-1.92174 2.886719,-2.878906 a 1.0001,1.0001 0 0 0 0.002,-1.41211 l -5.933593,-5.955078 a 1.0001,1.0001 0 0 0 -1.410157,-0.0059 l -2.685546,2.65625 C 13.357469,14.92558 11.514102,13.013063 9.8320313,10.880859 L 12.572266,8.1171875 a 1.0001,1.0001 0 0 0 -0.175782,-1.546875 c -0.02036,-0.012926 -0.03848,-0.027571 -0.05664,-0.042969 -0.0028,-0.00238 -0.0051,-0.00538 -0.0078,-0.00781 C 10.472124,4.6730697 8.6197414,2.8252295 6.7753906,0.9765625 a 1.0001,1.0001 0 0 0 -0.00195,-0.001953 C 6.7713573,0.97253421 6.7382336,0.93414324 6.6757812,0.859375 A 1.0001,1.0001 0 0 0 5.9082031,0.5 Z m 0.03125,2.40625 C 7.3888786,4.4183979 8.9034728,5.9307472 10.423828,7.4414062 L 7.7636719,10.126953 a 1.0001,1.0001 0 0 0 -0.085937,1.308594 c 2.068656,2.716924 4.3916856,5.26861 7.3632816,7.21289 a 1.0001,1.0001 0 0 0 1.25,-0.125 l 2.615234,-2.58789 4.523437,4.541015 c -0.719482,0.722094 -1.437332,1.445852 -2.160156,2.154297 -0.323987,0.312192 -0.712872,0.54981 -1.138672,0.697266 -0.425874,0.147482 -0.877498,0.201057 -1.326172,0.15625 a 1.0001,1.0001 0 0 0 -0.01953,-0.002 c -1.113357,-0.08928 -2.198225,-0.396958 -3.191406,-0.90625 a 1.0001,1.0001 0 0 0 -0.01367,-0.0078 C 13.727877,21.654492 12.016902,20.48144 10.5,19.082031 a 1.0001,1.0001 0 0 0 -0.01953,-0.01758 C 8.4536035,17.286122 6.6626037,15.257624 5.1503906,13.027344 a 1.0001,1.0001 0 0 0 -0.00977,-0.01563 C 4.276444,11.785063 3.6018168,10.437082 3.1367188,9.0117188 3.0332293,8.6571763 2.9689916,8.2145725 2.8613281,7.7109375 l 0.023437,0.2089844 c 0,-0.2278938 -0.021245,-0.2061838 -0.041016,-0.25 V 6.9453125 c 0.00384,-0.014545 0.010172,-0.028328 0.013672,-0.042969 A 1.0001,1.0001 0 0 0 2.8789063,6.7695312 C 2.9447879,6.1068877 3.2471364,5.4898738 3.7324219,5.03125 a 1.0001,1.0001 0 0 0 0.00781,-0.00586 C 4.3675727,4.4202428 4.9762338,3.8057501 5.5917969,3.2050781 a 1.0001,1.0001 0 0 0 0.013672,-0.015625 C 5.6940626,3.0991379 5.7882995,2.9995844 5.8789062,2.90625 Z"
     id="path1" />
</svg>
