<svg width="24" height="24" viewBox="0 0 24 24" fill="none" xmlns="http://www.w3.org/2000/svg">
<path fill-rule="evenodd" clip-rule="evenodd" d="M11.5013 10.8057C11.2252 10.8057 11.0013 11.0295 11.0013 11.3057C11.0013 11.5818 11.2252 11.8057 11.5013 11.8057C11.7775 11.8057 12.0013 11.5818 12.0013 11.3057C12.0013 11.0295 11.7775 10.8057 11.5013 10.8057ZM10.0013 11.3057C10.0013 10.4772 10.6729 9.80566 11.5013 9.80566C12.3298 9.80566 13.0013 10.4772 13.0013 11.3057C13.0013 12.1341 12.3298 12.8057 11.5013 12.8057C10.6729 12.8057 10.0013 12.1341 10.0013 11.3057Z" fill="#00493F"/>
<path fill-rule="evenodd" clip-rule="evenodd" d="M6.00134 11.2207C6.00134 8.23003 8.46376 5.80566 11.5013 5.80566C14.5389 5.80566 17.0013 8.23003 17.0013 11.2207C17.0013 12.4377 16.5928 13.5625 15.9037 14.4671L15.8922 14.4817L12.9569 18.0938C12.6244 18.5252 12.096 18.8057 11.5013 18.8057C10.9067 18.8057 10.3783 18.5252 10.0458 18.0938L7.11051 14.4817L7.09901 14.4671C6.40984 13.5625 6.00134 12.4377 6.00134 11.2207ZM11.5013 6.99115C9.12876 6.99115 7.20543 8.88475 7.20543 11.2207C7.20543 12.1692 7.52189 13.0434 8.05679 13.7486L10.9913 17.3597L11.0028 17.3744C11.1173 17.5247 11.2979 17.6202 11.5013 17.6202C11.7047 17.6202 11.8853 17.5247 11.9999 17.3744L12.0114 17.3597L14.9459 13.7486C15.4808 13.0434 15.7973 12.1692 15.7973 11.2207C15.7973 8.88475 13.8739 6.99115 11.5013 6.99115Z" fill="#00493F"/>
<path fill-rule="evenodd" clip-rule="evenodd" d="M14.977 18.1173C15.1333 17.8308 15.4979 17.7222 15.7914 17.8747C16.3905 18.1861 17.0013 18.6918 17.0013 19.4249C17.0013 19.9009 16.7357 20.284 16.4138 20.5626C16.0912 20.8418 15.6588 21.0664 15.1761 21.2431C14.2063 21.5981 12.907 21.8057 11.5013 21.8057C10.0957 21.8057 8.79636 21.5981 7.82657 21.2431C7.34389 21.0664 6.91147 20.8418 6.58889 20.5626C6.26701 20.284 6.00134 19.9009 6.00134 19.4249C6.00134 18.6919 6.61194 18.1863 7.21091 17.8749C7.50439 17.7224 7.869 17.8309 8.02529 18.1174C8.18158 18.4039 8.07037 18.7599 7.77689 18.9124C7.25379 19.1844 7.20543 19.3902 7.20543 19.4249C7.20543 19.444 7.21387 19.5326 7.38769 19.683C7.56082 19.8329 7.84567 19.9947 8.24935 20.1425C9.05227 20.4364 10.2019 20.6302 11.5013 20.6302C12.8008 20.6302 13.9504 20.4364 14.7533 20.1425C15.157 19.9947 15.4419 19.8329 15.615 19.683C15.7888 19.5326 15.7973 19.444 15.7973 19.4249C15.7973 19.3901 15.7489 19.1843 15.2255 18.9123C14.932 18.7598 14.8208 18.4038 14.977 18.1173Z" fill="#00493F"/>
</svg>
