<svg width="32" height="32" viewBox="0 0 32 32" fill="none" xmlns="http://www.w3.org/2000/svg">
<path d="M21.5625 18.625L21.25 19.0625L28 25.875L25.875 28L19.125 21.1875L18.6875 21.5C17.1875 22.5 15.4375 23.0625 13.5 23.0625C8.25 23.0625 4 18.75 4 13.5C4 8.25 8.25 4 13.5 4C18.75 4 23 8.25 23 13.5C23 15.375 22.5 17.125 21.5625 18.625ZM18.8125 8.1875C17.4375 6.8125 15.5625 6 13.5 6C11.5 6 9.625 6.8125 8.1875 8.1875C6.8125 9.625 6 11.5 6 13.5C6 15.5 6.8125 17.4375 8.1875 18.8125C9.625 20.25 11.5 21 13.5 21C15.5625 21 17.4375 20.25 18.8125 18.8125C20.25 17.4375 21.0625 15.5 21.0625 13.5C21.0625 11.5 20.25 9.625 18.8125 8.1875Z" fill="black"/>
</svg>
