<svg width="22" height="23" viewBox="0 0 22 23" fill="none" xmlns="http://www.w3.org/2000/svg">
<path fill-rule="evenodd" clip-rule="evenodd" d="M11 7.75C10.0054 7.75 9.05161 8.14509 8.34835 8.84835C7.64509 9.55161 7.25 10.5054 7.25 11.5C7.25 12.4946 7.64509 13.4484 8.34835 14.1517C9.05161 14.8549 10.0054 15.25 11 15.25C11.9946 15.25 12.9484 14.8549 13.6517 14.1517C14.3549 13.4484 14.75 12.4946 14.75 11.5C14.75 10.5054 14.3549 9.55161 13.6517 8.84835C12.9484 8.14509 11.9946 7.75 11 7.75ZM8.75 11.5C8.75 10.9033 8.98705 10.331 9.40901 9.90901C9.83097 9.48705 10.4033 9.25 11 9.25C11.5967 9.25 12.169 9.48705 12.591 9.90901C13.0129 10.331 13.25 10.9033 13.25 11.5C13.25 12.0967 13.0129 12.669 12.591 13.091C12.169 13.5129 11.5967 13.75 11 13.75C10.4033 13.75 9.83097 13.5129 9.40901 13.091C8.98705 12.669 8.75 12.0967 8.75 11.5Z" fill="#065A4D"/>
<path fill-rule="evenodd" clip-rule="evenodd" d="M10.975 0.75C10.53 0.75 10.159 0.75 9.85502 0.77C9.54423 0.782516 9.2377 0.846729 8.94802 0.96C8.61427 1.09809 8.31099 1.30057 8.05551 1.55589C7.80002 1.8112 7.59733 2.11434 7.45902 2.448C7.31402 2.798 7.27502 3.168 7.25902 3.57C7.25723 3.71698 7.21823 3.86112 7.14566 3.98895C7.07309 4.11678 6.96931 4.22414 6.84402 4.301C6.71484 4.37132 6.56995 4.40775 6.42287 4.40687C6.2758 4.406 6.13135 4.36785 6.00302 4.296C5.64702 4.108 5.30702 3.957 4.93102 3.907C4.57296 3.8599 4.20914 3.88379 3.86031 3.9773C3.51149 4.07081 3.1845 4.23212 2.89802 4.452C2.65541 4.64648 2.44689 4.88001 2.28102 5.143C2.11102 5.397 1.92502 5.718 1.70302 6.103L1.67802 6.147C1.45502 6.532 1.27002 6.853 1.13602 7.127C0.996019 7.413 0.886019 7.695 0.846019 8.007C0.750619 8.72999 0.946299 9.46127 1.39002 10.04C1.62102 10.341 1.92202 10.56 2.26202 10.774C2.38865 10.8491 2.49416 10.9551 2.56867 11.0821C2.64317 11.209 2.68424 11.3528 2.68802 11.5C2.68424 11.6472 2.64317 11.791 2.56867 11.918C2.49416 12.0449 2.38865 12.1509 2.26202 12.226C1.92202 12.44 1.62202 12.659 1.39002 12.96C1.17014 13.2465 1.00883 13.5735 0.915322 13.9223C0.821811 14.2711 0.797922 14.6349 0.845019 14.993C0.886019 15.305 0.995019 15.587 1.13502 15.873C1.27002 16.147 1.45502 16.468 1.67802 16.853L1.70302 16.897C1.92502 17.282 2.11102 17.603 2.28102 17.857C2.45802 18.12 2.64802 18.357 2.89802 18.547C3.18443 18.7671 3.51138 18.9285 3.86021 19.0222C4.20903 19.1159 4.5729 19.14 4.93102 19.093C5.30702 19.043 5.64702 18.893 6.00302 18.704C6.13123 18.6323 6.2755 18.5943 6.42238 18.5934C6.56926 18.5925 6.71397 18.6289 6.84302 18.699C6.96933 18.7749 7.07402 18.882 7.14704 19.01C7.22007 19.138 7.25897 19.2826 7.26002 19.43C7.27502 19.832 7.31402 20.202 7.46002 20.552C7.59811 20.8858 7.80059 21.189 8.05591 21.4445C8.31122 21.7 8.61436 21.9027 8.94802 22.041C9.23802 22.161 9.53802 22.208 9.85502 22.229C10.159 22.25 10.53 22.25 10.975 22.25H11.025C11.47 22.25 11.841 22.25 12.145 22.23C12.463 22.208 12.762 22.161 13.052 22.04C13.3858 21.9019 13.689 21.6994 13.9445 21.4441C14.2 21.1888 14.4027 20.8857 14.541 20.552C14.686 20.202 14.725 19.832 14.741 19.43C14.7426 19.2829 14.7816 19.1385 14.8541 19.0105C14.9267 18.8825 15.0306 18.775 15.156 18.698C15.2853 18.6278 15.4302 18.5916 15.5773 18.5926C15.7244 18.5937 15.8688 18.632 15.997 18.704C16.353 18.892 16.693 19.043 17.069 19.092C17.792 19.1874 18.5233 18.9917 19.102 18.548C19.352 18.356 19.542 18.12 19.719 17.857C19.889 17.603 20.075 17.282 20.297 16.897L20.322 16.853C20.545 16.468 20.73 16.147 20.864 15.873C21.004 15.587 21.114 15.304 21.154 14.993C21.2494 14.27 21.0537 13.5387 20.61 12.96C20.379 12.659 20.078 12.44 19.738 12.226C19.6114 12.1509 19.5059 12.0449 19.4314 11.918C19.3569 11.791 19.3158 11.6472 19.312 11.5C19.312 11.222 19.464 10.946 19.738 10.774C20.078 10.56 20.378 10.341 20.61 10.04C20.8299 9.75352 20.9912 9.42653 21.0847 9.07771C21.1782 8.72888 21.2021 8.36506 21.155 8.007C21.1079 7.6996 21.0099 7.40219 20.865 7.127C20.6942 6.79478 20.5131 6.46795 20.322 6.147L20.297 6.103C20.1144 5.77708 19.9216 5.45692 19.719 5.143C19.5531 4.88036 19.3445 4.64718 19.102 4.453C18.8156 4.23294 18.4887 4.07146 18.1398 3.97778C17.791 3.88409 17.4271 3.86004 17.069 3.907C16.693 3.957 16.353 4.107 15.997 4.296C15.8688 4.36768 15.7245 4.40572 15.5777 4.4066C15.4308 4.40747 15.2861 4.37114 15.157 4.301C15.0314 4.22438 14.9272 4.11712 14.8542 3.98928C14.7813 3.86143 14.742 3.71717 14.74 3.57C14.725 3.168 14.686 2.798 14.54 2.448C14.4019 2.11425 14.1994 1.81097 13.9441 1.55549C13.6888 1.3 13.3857 1.09731 13.052 0.959C12.762 0.839 12.462 0.792 12.145 0.771C11.841 0.75 11.47 0.75 11.025 0.75H10.975ZM9.52202 2.345C9.59902 2.313 9.71602 2.284 9.95702 2.267C10.204 2.25 10.524 2.25 11 2.25C11.476 2.25 11.796 2.25 12.043 2.267C12.284 2.284 12.401 2.313 12.478 2.345C12.785 2.472 13.028 2.715 13.155 3.022C13.195 3.118 13.228 3.269 13.241 3.626C13.271 4.418 13.68 5.181 14.406 5.6C15.132 6.019 15.997 5.992 16.698 5.622C17.014 5.455 17.161 5.408 17.265 5.395C17.5936 5.35158 17.9259 5.44043 18.189 5.642C18.255 5.693 18.339 5.78 18.474 5.98C18.613 6.186 18.773 6.463 19.011 6.875C19.249 7.287 19.408 7.565 19.517 7.787C19.624 8.004 19.657 8.12 19.667 8.203C19.7104 8.53157 19.6216 8.86392 19.42 9.127C19.356 9.21 19.242 9.314 18.94 9.504C18.268 9.926 17.812 10.662 17.812 11.5C17.812 12.338 18.268 13.074 18.94 13.496C19.242 13.686 19.356 13.79 19.42 13.873C19.622 14.136 19.71 14.468 19.667 14.797C19.657 14.88 19.623 14.997 19.517 15.213C19.408 15.436 19.249 15.713 19.011 16.125C18.773 16.537 18.612 16.814 18.474 17.02C18.339 17.22 18.255 17.307 18.189 17.358C17.9259 17.5596 17.5936 17.6484 17.265 17.605C17.161 17.592 17.015 17.545 16.698 17.378C15.998 17.008 15.132 16.98 14.406 17.399C13.68 17.818 13.271 18.582 13.241 19.374C13.228 19.731 13.195 19.882 13.155 19.978C13.0922 20.1298 13.0001 20.2677 12.8839 20.3839C12.7677 20.5001 12.6298 20.5922 12.478 20.655C12.401 20.687 12.284 20.716 12.043 20.733C11.796 20.75 11.476 20.75 11 20.75C10.524 20.75 10.204 20.75 9.95702 20.733C9.71602 20.716 9.59902 20.687 9.52202 20.655C9.37022 20.5922 9.2323 20.5001 9.11613 20.3839C8.99997 20.2677 8.90784 20.1298 8.84502 19.978C8.80502 19.882 8.77202 19.731 8.75902 19.374C8.72902 18.582 8.32002 17.819 7.59402 17.4C6.86802 16.981 6.00302 17.008 5.30202 17.378C4.98602 17.545 4.83902 17.592 4.73502 17.605C4.40645 17.6484 4.0741 17.5596 3.81102 17.358C3.74502 17.307 3.66102 17.22 3.52602 17.02C3.3379 16.7272 3.15882 16.4288 2.98902 16.125C2.75102 15.713 2.59202 15.435 2.48302 15.213C2.37602 14.996 2.34302 14.88 2.33302 14.797C2.2896 14.4684 2.37845 14.1361 2.58002 13.873C2.64402 13.79 2.75802 13.686 3.06002 13.496C3.73202 13.074 4.18802 12.338 4.18802 11.5C4.18802 10.662 3.73202 9.926 3.06002 9.504C2.75802 9.314 2.64402 9.21 2.58002 9.127C2.37845 8.86392 2.2896 8.53157 2.33302 8.203C2.34302 8.12 2.37702 8.003 2.48302 7.787C2.59202 7.564 2.75102 7.287 2.98902 6.875C3.22702 6.463 3.38802 6.186 3.52602 5.98C3.66102 5.78 3.74502 5.693 3.81102 5.642C4.0741 5.44043 4.40645 5.35158 4.73502 5.395C4.83902 5.408 4.98502 5.455 5.30202 5.622C6.00202 5.992 6.86802 6.02 7.59402 5.6C8.32002 5.181 8.72902 4.418 8.75902 3.626C8.77202 3.269 8.80502 3.118 8.84502 3.022C8.97202 2.715 9.21502 2.472 9.52202 2.345Z" fill="#065A4D"/>
</svg>
