<?xml version="1.0" encoding="UTF-8" standalone="no"?>
<svg
   width="16"
   height="18"
   viewBox="0 0 16 18"
   fill="none"
   version="1.1"
   id="svg1"
   sodipodi:docname="staple.svg"
   inkscape:version="1.3.2 (091e20e, 2023-11-25, custom)"
   xmlns:inkscape="http://www.inkscape.org/namespaces/inkscape"
   xmlns:sodipodi="http://sodipodi.sourceforge.net/DTD/sodipodi-0.dtd"
   xmlns="http://www.w3.org/2000/svg"
   xmlns:svg="http://www.w3.org/2000/svg">
  <sodipodi:namedview
     id="namedview1"
     pagecolor="#ffffff"
     bordercolor="#000000"
     borderopacity="0.25"
     inkscape:showpageshadow="2"
     inkscape:pageopacity="0.0"
     inkscape:pagecheckerboard="0"
     inkscape:deskcolor="#d1d1d1"
     inkscape:zoom="45.222222"
     inkscape:cx="8.004914"
     inkscape:cy="9"
     inkscape:window-width="1920"
     inkscape:window-height="1010"
     inkscape:window-x="-6"
     inkscape:window-y="-6"
     inkscape:window-maximized="1"
     inkscape:current-layer="svg1" />
  <g
     clip-path="url(#clip0_282_2392)"
     id="g1">
    <path
       style="color:#000000;fill:#c59b6d;stroke-linecap:round;stroke-miterlimit:10;-inkscape-stroke:none"
       d="m 11.134766,0.49609375 c -0.479325,0 -0.953864,0.0954306 -1.3964847,0.27929687 C 9.2956555,0.959278 8.8928878,1.2287332 8.5546875,1.5683594 L 3.8417969,6.28125 l -0.00586,0.00586 0.013672,0.013672 -2.3222657,2.2949219 -0.00195,0.00195 C 0.54831205,9.5762354 0,10.902275 0,12.285156 c 0,1.382792 0.54831373,2.710843 1.5253906,3.689453 h 0.00195 C 2.5059222,16.951673 3.8319888,17.5 5.2148437,17.5 c 1.382864,0 2.7089303,-0.548325 3.6875001,-1.525391 h 0.00195 L 15.734375,9.1445313 a 0.5,0.5 0 0 0 0,-0.7070313 0.5,0.5 0 0 0 -0.708984,0 L 8.1972656,15.267578 C 7.4059171,16.057711 6.3331373,16.5 5.2148437,16.5 4.0971137,16.5 3.025621,16.05698 2.234375,15.267578 1.4442277,14.47619 1,13.403362 1,12.285156 1,11.16684 1.4442293,10.096047 2.234375,9.3046875 l 3.4804687,-3.4433594 0.00195,-0.00195 0.00391,-0.00391 -0.019531,-0.019531 3.5625,-3.5625 C 9.508971,2.0271042 9.8000602,1.8306379 10.121094,1.6972656 c 0.321118,-0.1333934 0.665997,-0.2011719 1.013672,-0.2011719 0.347674,0 0.69268,0.067806 1.013672,0.2011719 0.320522,0.1331703 0.610503,0.3304366 0.855468,0.5761719 0.494151,0.498302 0.771485,1.1692944 0.771485,1.8710937 0,0.7017994 -0.277334,1.3747449 -0.771485,1.8730469 L 8.2773438,10.736328 6.1777344,12.833984 c -0.2022675,0.199669 -0.4736142,0.3125 -0.7578125,0.3125 -0.2835592,0 -0.553734,-0.113662 -0.7558594,-0.3125 -0.1968507,-0.201773 -0.3105469,-0.471849 -0.3105469,-0.753906 0,-0.283304 0.1120552,-0.553804 0.3105469,-0.755859 l 0.00195,-0.002 6.6171874,-6.6289066 a 0.5,0.5 0 0 0 0,-0.7070313 0.5,0.5 0 0 0 -0.707031,0 L 3.9550781,10.619141 h -0.00195 c -0.3841611,0.389148 -0.5996094,0.914126 -0.5996094,1.460937 0,0.546811 0.2154483,1.071789 0.5996094,1.460938 l 0.00391,0.0039 0.00195,0.002 c 0.3891359,0.384135 0.9141035,0.599609 1.4609375,0.599609 0.5468408,0 1.0718055,-0.215478 1.4609375,-0.599609 l 0.00195,-0.002 2.0996094,-2.101563 4.7324221,-4.7207028 c 0.679647,-0.6853568 1.060547,-1.6130059 1.060547,-2.578125 0,-0.965119 -0.3809,-1.890815 -1.060547,-2.5761718 C 13.376649,1.2286809 12.973823,0.95927073 12.53125,0.77539062 12.088643,0.59149639 11.61409,0.49609375 11.134766,0.49609375 Z"
       id="path1" />
  </g>
  <defs
     id="defs1">
    <clipPath
       id="clip0_282_2392">
      <rect
         width="15.88"
         height="17"
         fill="white"
         transform="translate(0 0.5)"
         id="rect1" />
    </clipPath>
  </defs>
</svg>
