<svg width="16" height="16" viewBox="0 0 16 16" fill="none" xmlns="http://www.w3.org/2000/svg">
<path d="M14.9488 6.07866C14.8863 5.88649 14.7683 5.71712 14.6097 5.59189C14.4511 5.46665 14.259 5.39116 14.0575 5.37491L10.37 5.07741L8.94629 1.63429C8.8693 1.44667 8.73825 1.28619 8.56981 1.17325C8.40137 1.06031 8.20315 1 8.00035 1C7.79756 1 7.59934 1.06031 7.4309 1.17325C7.26246 1.28619 7.13141 1.44667 7.05442 1.63429L5.63192 5.07679L1.94254 5.37491C1.74078 5.39198 1.54854 5.4682 1.3899 5.59404C1.23127 5.71988 1.1133 5.88973 1.05077 6.08232C0.988239 6.27491 0.983936 6.48167 1.0384 6.67669C1.09286 6.87172 1.20366 7.04633 1.35692 7.17866L4.16942 9.60554L3.31254 13.2343C3.26462 13.4314 3.27635 13.6384 3.34625 13.8288C3.41615 14.0193 3.54107 14.1847 3.70514 14.304C3.86921 14.4234 4.06505 14.4913 4.26778 14.4991C4.47051 14.5069 4.671 14.4544 4.84379 14.348L8.00004 12.4055L11.1582 14.348C11.331 14.4531 11.5311 14.5047 11.7332 14.4962C11.9353 14.4878 12.1304 14.4198 12.2939 14.3007C12.4574 14.1816 12.5821 14.0168 12.6521 13.8271C12.7221 13.6373 12.7345 13.431 12.6875 13.2343L11.8275 9.60491L14.64 7.17804C14.7945 7.04593 14.9064 6.87094 14.9613 6.67522C15.0163 6.47951 15.0119 6.27189 14.9488 6.07866ZM13.99 6.42054L10.9463 9.04554C10.8769 9.10537 10.8252 9.18312 10.797 9.27031C10.7688 9.3575 10.7651 9.45076 10.7863 9.53991L11.7163 13.4649C11.7187 13.4703 11.7189 13.4765 11.717 13.482C11.715 13.4876 11.7109 13.4922 11.7057 13.4949C11.6944 13.5037 11.6913 13.5018 11.6819 13.4949L8.26192 11.3918C8.18315 11.3434 8.0925 11.3177 8.00004 11.3177C7.90758 11.3177 7.81693 11.3434 7.73817 11.3918L4.31817 13.4962C4.30879 13.5018 4.30629 13.5037 4.29442 13.4962C4.28914 13.4935 4.2851 13.4889 4.28312 13.4833C4.28115 13.4777 4.28139 13.4716 4.28379 13.4662L5.21379 9.54116C5.23499 9.45201 5.23127 9.35875 5.20306 9.27156C5.17484 9.18437 5.1232 9.10662 5.05379 9.04679L2.01004 6.42179C2.00254 6.41554 1.99567 6.40991 2.00192 6.39054C2.00817 6.37116 2.01317 6.37366 2.02254 6.37241L6.01754 6.04991C6.10917 6.04205 6.19686 6.00907 6.27096 5.9546C6.34506 5.90013 6.4027 5.82628 6.43754 5.74116L7.97629 2.01554C7.98129 2.00491 7.98317 1.99991 7.99817 1.99991C8.01317 1.99991 8.01504 2.00491 8.02004 2.01554L9.56254 5.74116C9.59771 5.82631 9.65572 5.90008 9.73016 5.95434C9.80461 6.00861 9.89259 6.04125 9.98442 6.04866L13.9794 6.37116C13.9888 6.37116 13.9944 6.37116 14 6.38929C14.0057 6.40741 14 6.41429 13.99 6.42054Z" fill="#904793"/>
</svg>
