<svg width="28" height="28" viewBox="0 0 28 28" fill="none" xmlns="http://www.w3.org/2000/svg">
<path d="M8.5847 23.6995L14.0065 19.7549L19.4283 23.6995C19.7615 23.942 20.0819 24.0377 20.3896 23.9867C20.71 23.9229 20.9471 23.7569 21.1009 23.4888C21.2547 23.2207 21.2612 22.8825 21.1202 22.474L18.9861 16.1167L24.4655 12.2104C24.7731 11.9934 24.9462 11.7253 24.9846 11.4062C25.0359 11.087 24.959 10.8062 24.7539 10.5636C24.5616 10.3211 24.2476 10.2062 23.8118 10.219L17.0827 10.2381L15.0255 3.84253C14.9101 3.47233 14.7114 3.2234 14.4295 3.09574C14.1475 2.96809 13.8655 2.96809 13.5835 3.09574C13.3015 3.2234 13.1028 3.47233 12.9875 3.84253L10.9303 10.2381L4.22036 10.219C3.79738 10.2062 3.47694 10.3211 3.25905 10.5636C3.05397 10.8062 2.97065 11.087 3.00911 11.4062C3.04756 11.7253 3.227 11.9998 3.54744 12.2295L9.0269 16.1167L6.89279 22.474C6.76462 22.8825 6.77744 23.2207 6.93125 23.4888C7.08505 23.7569 7.31577 23.9229 7.62339 23.9867C7.93101 24.0377 8.25144 23.942 8.5847 23.6995Z" fill="#3A665C"/>
</svg>
