<svg width="30" height="24" viewBox="0 0 30 24" fill="none" xmlns="http://www.w3.org/2000/svg">
<g id="Layer_1" clip-path="url(#clip0_26_3155)">
<path id="Vector" d="M11.3959 22.4928C11.4432 21.8169 11.4894 21.1545 11.5367 20.4933C11.6426 19.0074 11.744 17.5216 11.8634 16.0368C11.8823 15.8855 11.9537 15.7456 12.065 15.6414C16.0453 12.0614 20.0256 8.48519 24.0059 4.9127C24.0487 4.8744 24.1039 4.84511 24.1298 4.80005C24.1974 4.67726 24.2526 4.54771 24.3134 4.41929C24.1704 4.37874 24.0149 4.27961 23.8876 4.30664C23.6613 4.36064 23.4458 4.45242 23.25 4.57813C18.2934 7.67224 13.3391 10.7712 8.38702 13.8751C8.31311 13.9277 8.22737 13.9613 8.13738 13.9729C8.04739 13.9845 7.95593 13.9737 7.87109 13.9416C5.79946 13.2927 3.72558 12.6472 1.65396 11.9961C1.42124 11.9266 1.19829 11.8278 0.99045 11.7021C0.457617 11.3641 0.415937 10.891 0.901456 10.4866C1.1591 10.27 1.44963 10.0958 1.7621 9.97067C3.67714 9.21929 5.60233 8.4882 7.52413 7.75147C14.1389 5.22061 20.7552 2.68975 27.373 0.158885C27.529 0.0951373 27.6914 0.0483075 27.8574 0.0191996C28.7383 -0.1126 29.3748 0.417979 29.35 1.35184C29.3342 1.97142 29.1945 2.59099 29.0639 3.2038C27.7451 9.41906 26.4204 15.6324 25.0896 21.8439C25.031 22.1188 24.9769 22.3948 24.906 22.6663C24.5387 24.035 23.5407 24.3831 22.3928 23.5438C21.1912 22.6652 19.9896 21.785 18.788 20.9033C17.9116 20.2612 17.0295 19.627 16.1621 18.9725C15.9661 18.8249 15.8636 18.8531 15.7002 19.0119C14.656 20.0258 13.6016 21.0205 12.5517 22.0253C12.4041 22.1819 12.2244 22.3048 12.0249 22.3855C11.8254 22.4662 11.6109 22.5028 11.3959 22.4928Z" fill="white"/>
</g>
<defs>
<clipPath id="clip0_26_3155">
<rect width="28.7887" height="24" fill="white" transform="translate(0.5625)"/>
</clipPath>
</defs>
</svg>
