<svg width="18" height="16" viewBox="0 0 18 16" fill="none" xmlns="http://www.w3.org/2000/svg">
<path d="M1 3.99316H17H1ZM17.5 9.99316C17.5 13.0307 15.0376 15.4932 12 15.4932H6C2.96243 15.4932 0.5 13.0307 0.5 9.99316H1.5C1.5 12.4784 3.51472 14.4932 6 14.4932H12C14.4853 14.4932 16.5 12.4784 16.5 9.99316H17.5ZM6 15.4932C2.96243 15.4932 0.5 13.0307 0.5 9.99316V3.99316H1.5V9.99316C1.5 12.4784 3.51472 14.4932 6 14.4932V15.4932ZM17.5 3.99316V9.99316C17.5 13.0307 15.0376 15.4932 12 15.4932V14.4932C14.4853 14.4932 16.5 12.4784 16.5 9.99316V3.99316H17.5Z" fill="#EEEEEE"/>
<path d="M8.25 10C8.25 10.2761 8.47386 10.5 8.75 10.5C9.02614 10.5 9.25 10.2761 9.25 10H8.25ZM9.10355 0.646447C8.90829 0.451184 8.59171 0.451184 8.39645 0.646447L5.21447 3.82843C5.0192 4.02369 5.0192 4.34027 5.21447 4.53553C5.40973 4.7308 5.72631 4.7308 5.92157 4.53553L8.75 1.70711L11.5784 4.53553C11.7737 4.7308 12.0903 4.7308 12.2855 4.53553C12.4808 4.34027 12.4808 4.02369 12.2855 3.82843L9.10355 0.646447ZM9.25 10L9.25 1H8.25L8.25 10H9.25Z" fill="white"/>
</svg>
