<svg width="25" height="24" viewBox="0 0 25 24" fill="none" xmlns="http://www.w3.org/2000/svg">
<g id="Layer_1" clip-path="url(#clip0_26_3153)">
<path id="Vector" d="M24.5595 11.9943C24.5595 13.9397 24.568 15.8841 24.5595 17.8286C24.5464 20.203 23.5145 22.0123 21.4724 23.2235C20.576 23.7444 19.5544 24.0109 18.5177 23.9943C14.5415 23.9943 10.5663 24.0056 6.5938 23.9943C5.79851 23.9964 5.0107 23.8409 4.2759 23.5367C3.5411 23.2325 2.87389 22.7856 2.31285 22.2219C1.75181 21.6583 1.30807 20.989 1.00728 20.2528C0.706496 19.5166 0.55463 18.728 0.560465 17.9328C0.560465 13.9807 0.560465 10.0292 0.560465 6.07831C0.570793 3.39777 2.20259 1.14255 4.7376 0.290973C5.35538 0.0906748 6.00167 -0.00763205 6.65107 -8.44933e-05C10.5875 -8.44933e-05 14.524 -8.44933e-05 18.4605 -8.44933e-05C21.1542 -8.44933e-05 23.4047 1.62326 24.2666 4.17518C24.4712 4.80784 24.5705 5.4698 24.5605 6.13465C24.5586 8.08942 24.5583 10.0426 24.5595 11.9943ZM4.5902 7.36366C4.57705 7.9561 4.85121 8.52883 5.11034 9.10718C6.12396 11.3979 7.58059 13.4656 9.39639 15.1912C11.2423 16.9423 13.3698 18.2539 15.702 19.2444C16.1715 19.4425 16.655 19.5636 17.1789 19.3871C18.0482 19.1021 18.7847 18.5117 19.252 17.7253C19.713 16.9742 19.6623 16.3498 19.0473 15.8625C18.2708 15.2485 17.4606 14.6758 16.6409 14.1209C16.4571 13.986 16.2453 13.8942 16.0211 13.8522C15.797 13.8103 15.5663 13.8193 15.3462 13.8786C14.933 13.9951 14.6467 14.2786 14.412 14.6176C13.9247 15.3198 13.3604 15.2748 12.7952 15.0297C11.8131 14.5978 10.9296 14.0176 10.2142 13.2073C9.65083 12.5651 9.18139 11.8581 8.94291 11.0216C8.87699 10.818 8.87172 10.5996 8.92773 10.3931C8.98375 10.1865 9.09863 10.0007 9.25838 9.8583C9.42248 9.71444 9.59457 9.57997 9.77383 9.45551C10.3146 9.04616 10.4733 8.57295 10.2123 8.02933C9.66955 6.89419 8.91051 5.87586 7.97773 5.03145C7.86188 4.91962 7.72284 4.83465 7.57048 4.78256C7.41812 4.73048 7.25617 4.71255 7.0961 4.73006C6.84183 4.76057 6.59254 4.82369 6.35438 4.91784C5.21832 5.37039 4.58644 6.23511 4.5902 7.36366ZM19.4088 11.1652C19.4068 10.5276 19.2956 9.89506 19.0801 9.29496C18.4135 7.41718 17.161 6.04827 15.3837 5.16383C14.4468 4.70524 13.4125 4.4813 12.3699 4.5113C12.1962 4.5113 12.0431 4.55918 11.9633 4.731C11.8319 5.01267 11.9511 5.21735 12.2854 5.27556C12.7839 5.36288 13.289 5.42297 13.781 5.53939C14.7941 5.77787 15.7396 6.17126 16.5442 6.85384C17.5451 7.70448 18.084 8.82552 18.3675 10.0752C18.498 10.6507 18.5553 11.2441 18.6492 11.829C18.6858 12.0544 18.806 12.1473 19.0388 12.1417C19.2717 12.1361 19.3919 12.0318 19.4078 11.8065C19.4191 11.6206 19.4088 11.4328 19.4088 11.1652ZM17.5638 10.77L17.6239 10.7596C17.53 10.3259 17.4897 9.87802 17.3498 9.46209C16.763 7.72795 15.087 6.41068 12.9238 6.28956C12.6553 6.27454 12.5154 6.40223 12.4816 6.66512C12.4525 6.89609 12.5539 7.01251 12.8205 7.08199C13.4083 7.23597 14.0054 7.36366 14.5763 7.56177C15.5011 7.88662 16.1405 8.52789 16.4278 9.47241C16.5902 10.0151 16.6813 10.5794 16.8033 11.1343C16.8578 11.3849 16.9695 11.4826 17.2005 11.4694C17.4314 11.4563 17.5488 11.3408 17.5695 11.0939C17.5713 10.9897 17.5638 10.8798 17.5638 10.77ZM15.8353 10.2395C15.8321 10.1819 15.8255 10.1245 15.8156 10.0677C15.6663 9.34754 15.2523 8.81331 14.6448 8.41804C14.2693 8.17392 13.8693 8.01431 13.4102 8.09975C13.3043 8.11119 13.2065 8.16168 13.1358 8.24136C13.0651 8.32105 13.0267 8.42421 13.028 8.5307C13.028 8.77012 13.2158 8.80674 13.3886 8.85744C13.6421 8.93161 13.9078 8.98137 14.1397 9.09404C14.688 9.35881 14.9227 9.84515 15.0035 10.4254C15.0495 10.7568 15.2128 10.9249 15.4382 10.9127C15.687 10.8986 15.8137 10.7193 15.8325 10.37C15.8363 10.3465 15.8353 10.3277 15.8353 10.2395Z" fill="white"/>
</g>
<defs>
<clipPath id="clip0_26_3153">
<rect width="24.0019" height="24" fill="white" transform="translate(0.560547)"/>
</clipPath>
</defs>
</svg>
