<svg width="25" height="24" viewBox="0 0 25 24" fill="none" xmlns="http://www.w3.org/2000/svg">
<g id="Layer_1" clip-path="url(#clip0_26_3158)">
<path id="Vector" d="M1.14381 23.4865C1.6134 22.0777 2.07079 20.7083 2.53944 19.3446C2.58066 19.2509 2.59553 19.1476 2.58246 19.046C2.56938 18.9444 2.52886 18.8483 2.46524 18.768C1.44393 17.3192 0.773832 15.6527 0.507977 13.9002C0.0628023 11.0253 0.558694 8.31012 2.07548 5.82315C3.79138 3.00559 6.26144 1.14976 9.46877 0.358021C15.2279 -1.06579 21.0659 1.86636 23.4101 7.3127C25.3598 11.8396 24.2497 17.2409 20.6742 20.6426C18.6756 22.5407 16.3061 23.6677 13.5646 23.9363C10.9311 24.2231 8.27832 23.6061 6.04167 22.1866C5.95514 22.1253 5.85466 22.0866 5.74937 22.074C5.64407 22.0613 5.53729 22.0752 5.43871 22.1143C4.09755 22.5557 2.75076 22.9784 1.4049 23.4076L1.14381 23.4865ZM16.2384 18.7614C16.6235 18.6872 16.955 18.6618 17.2612 18.5576C18.9621 17.9781 19.5397 17.1573 19.5895 15.5945C19.6031 15.4857 19.5806 15.3755 19.5254 15.2808C19.4703 15.1861 19.3855 15.1122 19.2842 15.0704C18.3901 14.6449 17.4998 14.2073 16.6038 13.7893C16.1455 13.5761 15.8759 13.6635 15.5707 14.0711C15.3378 14.3838 15.1095 14.7013 14.8691 15.0103C14.5038 15.4799 14.2445 15.5381 13.6895 15.3118C11.6806 14.4919 10.2004 13.0756 9.08746 11.2404C9.01598 11.141 8.98146 11.0198 8.98987 10.8977C8.99827 10.7756 9.04907 10.6603 9.13348 10.5717C9.32132 10.3519 9.50915 10.1284 9.71014 9.92459C10.1572 9.47941 10.3291 8.99761 9.96184 8.42188C9.95878 8.41457 9.95627 8.40703 9.95433 8.39934C9.59744 7.56065 9.24806 6.7182 8.87708 5.8842C8.82073 5.75553 8.68924 5.60244 8.56057 5.57239C7.92193 5.42212 7.2767 5.41273 6.72728 5.83442C6.23146 6.22242 5.85648 6.74367 5.64627 7.33712C5.20767 8.5158 5.34761 9.66443 5.83411 10.7962C6.191 11.6292 6.71319 12.359 7.24289 13.0803C8.13274 14.2993 9.18497 15.391 10.3704 16.3251C11.659 17.3301 13.1288 17.9631 14.6794 18.4214C15.21 18.5726 15.7538 18.6553 16.2384 18.7614Z" fill="white"/>
</g>
<defs>
<clipPath id="clip0_26_3158">
<rect width="24.0113" height="24" fill="white" transform="translate(0.351074)"/>
</clipPath>
</defs>
</svg>
