<svg width="35" height="24" viewBox="0 0 35 24" fill="none" xmlns="http://www.w3.org/2000/svg">
<g id="Layer_1" clip-path="url(#clip0_26_3162)">
<path id="Vector" d="M17.4329 23.9973C14.3027 24.0198 10.8423 23.8302 7.38719 23.512C6.27748 23.4099 5.16379 23.3105 4.07264 23.1143C2.61424 22.8491 1.421 21.4053 1.25527 19.9323C0.913212 16.8219 0.709035 13.7089 0.824382 10.5879C0.906583 8.38708 1.08159 6.18754 1.27383 3.99331C1.41437 2.38642 2.91388 0.971765 4.52872 0.824598C6.82637 0.613793 9.12004 0.360561 11.423 0.212069C15.2146 -0.048871 19.0191 -0.067913 22.8131 0.155059C25.5775 0.330068 28.3365 0.59258 31.0968 0.833879C32.6441 0.966461 34.1012 2.44873 34.2788 4.01585C34.6394 7.24024 34.837 10.4752 34.711 13.7182C34.6302 15.8302 34.4631 17.9423 34.2629 20.0477C34.1144 21.6201 32.6109 23.0387 30.9311 23.2296C26.45 23.7426 21.9433 23.9989 17.4329 23.9973ZM14.955 6.37846V17.6479L23.4243 12.0132L14.955 6.37846Z" fill="white"/>
</g>
<defs>
<clipPath id="clip0_26_3162">
<rect width="33.9529" height="24" fill="white" transform="translate(0.79248)"/>
</clipPath>
</defs>
</svg>
