<svg viewBox="0 0 18 20" xmlns="http://www.w3.org/2000/svg" fill="black"><path d="M16.5 2h-2.25v-.75a.75.75 0 1 0-1.5 0V2h-7.5v-.75a.75.75 0 0 0-1.5 0V2H1.5A1.5 1.5 0 0 0 0 3.5v15A1.5 1.5 0 0 0 1.5 20h15a1.5 1.5 0 0 0 1.5-1.5v-15A1.5 1.5 0 0 0 16.5 2M3.75 3.5v.75a.75.75 0 0 0 1.5 0V3.5h7.5v.75a.75.75 0 1 0 1.5 0V3.5h2.25v3h-15v-3zm12.75 15h-15V8h15zm-9-8.25v6a.75.75 0 1 1-1.5 0v-4.787l-.414.208a.75.75 0 0 1-.672-1.342l1.5-.75a.75.75 0 0 1 1.086.671m5.546 2.855L11.25 15.5h1.5a.75.75 0 1 1 0 1.5h-3a.75.75 0 0 1-.6-1.2l2.698-3.597a.75.75 0 1 0-1.248-.828.75.75 0 1 1-1.298-.75 2.25 2.25 0 1 1 3.744 2.48"/></svg>