<svg width="16" height="16" viewBox="0 0 16 16" version="1.1" sodipodi:docname="clock.svg" inkscape:version="1.3.2 (091e20e, 2023-11-25, custom)" xmlns:inkscape="http://www.inkscape.org/namespaces/inkscape" xmlns:sodipodi="http://sodipodi.sourceforge.net/DTD/sodipodi-0.dtd" xmlns="http://www.w3.org/2000/svg" xmlns:svg="http://www.w3.org/2000/svg" fill="black"><sodipodi:namedview pagecolor="#ffffff" bordercolor="#000000" borderopacity="0.25" inkscape:showpageshadow="2" inkscape:pageopacity="0.0" inkscape:pagecheckerboard="0" inkscape:deskcolor="#d1d1d1" inkscape:zoom="50.875" inkscape:cx="8" inkscape:cy="8" inkscape:window-width="1920" inkscape:window-height="1010" inkscape:window-x="-6" inkscape:window-y="-6" inkscape:window-maximized="1" inkscape:current-layer="svg2"/><g><path d="M8 0C3.588 0 0 3.588 0 8s3.588 8 8 8 8-3.588 8-8-3.588-8-8-8m0 1c3.872 0 7 3.128 7 7s-3.128 7-7 7-7-3.128-7-7 3.128-7 7-7"/><path d="M8 2.84a.5.5 0 0 0-.5.5v4.414l-2.904 2.24a.5.5 0 0 0-.092.701.5.5 0 0 0 .701.09l3.1-2.389A.5.5 0 0 0 8.5 8V3.34a.5.5 0 0 0-.5-.5"/></g></svg>