<svg width="16" height="17" viewBox="0 0 16 17" version="1.1" sodipodi:docname="close.svg" inkscape:version="1.3.2 (091e20e, 2023-11-25, custom)" xmlns:inkscape="http://www.inkscape.org/namespaces/inkscape" xmlns:sodipodi="http://sodipodi.sourceforge.net/DTD/sodipodi-0.dtd" xmlns="http://www.w3.org/2000/svg" xmlns:svg="http://www.w3.org/2000/svg" fill="black"><sodipodi:namedview pagecolor="#ffffff" bordercolor="#000000" borderopacity="0.25" inkscape:showpageshadow="2" inkscape:pageopacity="0.0" inkscape:pagecheckerboard="0" inkscape:deskcolor="#d1d1d1" inkscape:zoom="47.882353" inkscape:cx="7.9987715" inkscape:cy="8.5" inkscape:window-width="1920" inkscape:window-height="1010" inkscape:window-x="-6" inkscape:window-y="-6" inkscape:window-maximized="1" inkscape:current-layer="svg2"/><path d="m11.646 4.146-8 8a.5.5 0 0 0 0 .708.5.5 0 0 0 .708 0l8-8a.5.5 0 0 0 0-.708.5.5 0 0 0-.708 0"/><path d="M4 4a.5.5 0 0 0-.354.146.5.5 0 0 0 0 .708l8 8a.5.5 0 0 0 .708 0 .5.5 0 0 0 0-.708l-8-8A.5.5 0 0 0 4 4"/></svg>