<!--Uploaded to: SVG Repo, www.svgrepo.com, Generator: SVG Repo Mixer Tools--><svg width="800px" height="800px" viewBox="0 0 24 24" version="1.1" sodipodi:docname="download.svg" inkscape:version="1.1.2 (0a00cf5339, 2022-02-04)" xmlns:inkscape="http://www.inkscape.org/namespaces/inkscape" xmlns:sodipodi="http://sodipodi.sourceforge.net/DTD/sodipodi-0.dtd" xmlns="http://www.w3.org/2000/svg" xmlns:svg="http://www.w3.org/2000/svg" fill="black"><sodipodi:namedview pagecolor="#ffffff" bordercolor="#666666" borderopacity="1.0" inkscape:pageshadow="2" inkscape:pageopacity="0.0" inkscape:pagecheckerboard="0" showgrid="false" inkscape:zoom="1.05" inkscape:cx="399.52381" inkscape:cy="400.47619" inkscape:window-width="1920" inkscape:window-height="1012" inkscape:window-x="0" inkscape:window-y="31" inkscape:window-maximized="1" inkscape:current-layer="svg4"/><path d="M11.1 4.5c-3.193 0-5.761 2.602-5.864 5.814C3.66 10.9 2.5 12.374 2.5 14.166c0 2.29 1.836 4.168 4.1 4.168a.5.5 0 0 0 .5-.5.5.5 0 0 0-.5-.5c-1.713 0-3.1-1.408-3.1-3.168 0-1.45.95-2.66 2.234-3.041A.65.65 0 0 0 6.2 10.5c0-2.772 2.193-5 4.9-5S16 7.728 16 10.5a.6.6 0 0 0 .72.576A3 3 0 0 1 17.4 11c1.713 0 3.1 1.406 3.1 3.166s-1.387 3.168-3.1 3.168a.5.5 0 0 0-.5.5.5.5 0 0 0 .5.5c2.264 0 4.1-1.878 4.1-4.168S19.664 10 17.4 10c-.167 0-.325.035-.488.055C16.676 6.969 14.202 4.5 11.1 4.5m.9 7a.5.5 0 0 0-.5.5v5.762l-1.39-1.442a.5.5 0 0 0-.708-.013.5.5 0 0 0-.011.707l2.25 2.334.004.002.005.006.002.003a.5.5 0 0 0 .149.059l.015.006a.5.5 0 0 0 .18.074L12 19.5l.004-.002a.5.5 0 0 0 .18-.074l.015-.006a.5.5 0 0 0 .149-.059l.002-.004.006-.006.003-.002 2.25-2.333a.5.5 0 0 0-.011-.708.5.5 0 0 0-.707.014L12.5 17.762V12a.5.5 0 0 0-.5-.5"/></svg>