<svg viewBox="0 0 25 24" xmlns="http://www.w3.org/2000/svg" fill="black"><path d="M19.161 24H6.128l-.2-.045a5.8 5.8 0 0 1-3.372-1.541 5.9 5.9 0 0 1-1.911-4.473V6.08a7 7 0 0 1 .045-.746A5.9 5.9 0 0 1 6.453.02q6.184-.04 12.373 0a5.85 5.85 0 0 1 5.503 4.003q.204.72.33 1.455v13.054a2 2 0 0 0-.04.205 5.89 5.89 0 0 1-4.252 5.038c-.405.115-.81.165-1.206.225M3.041 11.993v5.883q-.007.399.06.79A3.5 3.5 0 0 0 6.693 21.6h11.883q.376 0 .745-.066a3.5 3.5 0 0 0 2.922-3.502V6.03a3.503 3.503 0 0 0-3.537-3.627H6.563a3.4 3.4 0 0 0-1.88.585 3.5 3.5 0 0 0-1.637 3.062c-.015 1.976-.005 3.967-.005 5.943"/><path d="M18.646 11.992a6.004 6.004 0 1 1-6.004-6.003 5.944 5.944 0 0 1 6.004 6.003m-2.397 0a3.602 3.602 0 1 0-3.627 3.593 3.557 3.557 0 0 0 3.627-3.558z"/><path d="M19.867 6.02a1.2 1.2 0 1 1-2.402-.011 1.2 1.2 0 0 1 2.402.01"/></svg>