<svg width="17" height="14" viewBox="0 0 17 14" version="1.1" sodipodi:docname="mail.svg" inkscape:version="1.3.2 (091e20e, 2023-11-25, custom)" xmlns:inkscape="http://www.inkscape.org/namespaces/inkscape" xmlns:sodipodi="http://sodipodi.sourceforge.net/DTD/sodipodi-0.dtd" xmlns="http://www.w3.org/2000/svg" xmlns:svg="http://www.w3.org/2000/svg" fill="black"><sodipodi:namedview pagecolor="#ffffff" bordercolor="#000000" borderopacity="0.25" inkscape:showpageshadow="2" inkscape:pageopacity="0.0" inkscape:pagecheckerboard="0" inkscape:deskcolor="#d1d1d1" inkscape:zoom="58.142857" inkscape:cx="8.4963145" inkscape:cy="7" inkscape:window-width="1920" inkscape:window-height="1010" inkscape:window-x="-6" inkscape:window-y="-6" inkscape:window-maximized="1" inkscape:current-layer="svg2"/><g><path d="M.834.63a.5.5 0 0 0-.313.891l7.5 6a.5.5 0 0 0 .625 0l7.5-6a.5.5 0 0 0-.312-.89zm1.426 1h12.148L8.334 6.49z"/><path d="M.834.5a.5.5 0 0 0-.5.5v12a.5.5 0 0 0 .5.5h15a.5.5 0 0 0 .5-.5V1a.5.5 0 0 0-.5-.5zm.5 1h14v11h-14Z"/></g></svg>