<!--Uploaded to: SVG Repo, www.svgrepo.com, Generator: SVG Repo Mixer Tools--><svg height="800px" width="800px" version="1.1" xmlns="http://www.w3.org/2000/svg" xmlns:xlink="http://www.w3.org/1999/xlink" viewBox="0 0 48 48" xml:space="preserve" fill="black"><g><g><path d="M47.987 21.938a1 1 0 0 0-.053-.264c-.011-.032-.019-.063-.033-.094a1 1 0 0 0-.193-.285l-.001-.001L42 15.586V10c0-.022-.011-.041-.013-.063a1 1 0 0 0-.051-.257c-.011-.032-.019-.063-.034-.094a1 1 0 0 0-.196-.293l-9-9a1 1 0 0 0-.294-.197q-.045-.018-.09-.032a1 1 0 0 0-.264-.053C32.038.01 32.02 0 32 0H7a1 1 0 0 0-1 1v14.586L.293 21.293l-.002.002a1 1 0 0 0-.192.285c-.014.031-.022.062-.033.094a1 1 0 0 0-.053.264C.011 21.96 0 21.978 0 22v19a1 1 0 0 0 1 1h5v5a1 1 0 0 0 1 1h34a1 1 0 0 0 1-1v-5h5a1 1 0 0 0 1-1V22c0-.022-.011-.04-.013-.062M44.586 21H42v-2.586zm-6-12H33V3.414zM8 2h23v8a1 1 0 0 0 1 1h8v10H8V2M6 18.414V21H3.414zM40 46H8v-4h32zm6-6H2V23h44z"/><path d="M18.254 26.72a2.8 2.8 0 0 0-1.097-.586 4.5 4.5 0 0 0-1.19-.17h-3.332V38h2.006v-4.828h1.428q.628 0 1.224-.221a2.9 2.9 0 0 0 1.054-.68q.459-.459.74-1.148t.281-1.606q0-1.02-.315-1.7a3.2 3.2 0 0 0-.799-1.097m-1.283 4.285q-.459.501-1.173.501h-1.156v-3.825h1.156q.714 0 1.173.442t.459 1.411-.459 1.471"/><polygon points="30.723,38 32.78,38 32.78,32.832 35.857,32.832 35.857,31.081 32.764,31.081 32.764,27.8 36.112,27.8 
			36.112,25.964 30.723,25.964 		"/><path d="M24.076 25.964H21.05V38h3.009q2.33 0 3.528-1.572t1.198-4.429-1.198-4.446-3.511-1.589m2.474 7.879q-.196.792-.552 1.318a2.4 2.4 0 0 1-.85.79 2.24 2.24 0 0 1-1.071.264h-.969v-8.466h.969q.578 0 1.071.264.493.263.85.79.357.526.552 1.326c.195.8.196 1.156.196 1.87q0 1.054-.196 1.844"/></g></g></svg>