<svg width="26" height="26" viewBox="0 0 26 26" version="1.1" sodipodi:docname="Vector(1).svg" inkscape:version="1.3.2 (091e20ef0f, 2023-11-25, custom)" xmlns:inkscape="http://www.inkscape.org/namespaces/inkscape" xmlns:sodipodi="http://sodipodi.sourceforge.net/DTD/sodipodi-0.dtd" xmlns="http://www.w3.org/2000/svg" xmlns:svg="http://www.w3.org/2000/svg" fill="black"><sodipodi:namedview pagecolor="#ffffff" bordercolor="#000000" borderopacity="0.25" inkscape:showpageshadow="2" inkscape:pageopacity="0.0" inkscape:pagecheckerboard="0" inkscape:deskcolor="#d1d1d1" inkscape:zoom="31.423077" inkscape:cx="13" inkscape:cy="13" inkscape:window-width="1920" inkscape:window-height="1021" inkscape:window-x="0" inkscape:window-y="92" inkscape:window-maximized="1" inkscape:current-layer="svg1"/><path d="M5.848.5a1 1 0 0 0-.725.31c-.32.336-.642.67-.945.98-.623.607-1.22 1.21-1.819 1.788A4.77 4.77 0 0 0 .89 6.572l.017-.107a1 1 0 0 0-.062.334v.945a1 1 0 0 0 .023.219c.048.214.018.193.018-.043a1 1 0 0 0 .021.209c.088.409.154.913.319 1.469l.005.025a17 17 0 0 0 2.272 4.533 33.7 33.7 0 0 0 5.643 6.395 23.6 23.6 0 0 0 5.537 3.804l.004.002a10.5 10.5 0 0 0 3.93 1.116 5.1 5.1 0 0 0 2.171-.254 5.1 5.1 0 0 0 1.871-1.149l.006-.006c.977-.957 1.93-1.921 2.887-2.878a1 1 0 0 0 .002-1.413l-5.934-5.955a1 1 0 0 0-1.41-.006l-2.685 2.657c-2.167-1.543-4.01-3.456-5.692-5.588l2.74-2.764a1 1 0 0 0-.176-1.547 1 1 0 0 1-.056-.043l-.008-.007Q9.542 3.75 6.775.977L6.773.975 6.676.859A1 1 0 0 0 5.908.5Zm.03 2.406q2.265 2.269 4.546 4.535l-2.66 2.686a1 1 0 0 0-.086 1.309c2.068 2.716 4.391 5.268 7.363 7.212a1 1 0 0 0 1.25-.125l2.615-2.587 4.524 4.54c-.72.723-1.438 1.446-2.16 2.155a3.1 3.1 0 0 1-2.465.853l-.02-.002a8.5 8.5 0 0 1-3.191-.906l-.014-.008a21.6 21.6 0 0 1-5.08-3.486l-.02-.018a31.7 31.7 0 0 1-5.33-6.037l-.01-.015a15 15 0 0 1-2.003-4c-.104-.355-.168-.797-.276-1.301l.024.209c0-.228-.021-.206-.041-.25v-.725q.007-.02.013-.043a1 1 0 0 0 .022-.132c.066-.663.368-1.28.853-1.739l.008-.006c.628-.605 1.236-1.22 1.852-1.82l.013-.016c.09-.09.183-.19.274-.283"/></svg>