<svg viewBox="0 0 16 16" xmlns="http://www.w3.org/2000/svg" fill="black"><path d="M14.949 6.079a1.02 1.02 0 0 0-.892-.704l-3.687-.298-1.424-3.443a1.022 1.022 0 0 0-1.892 0L5.632 5.077l-3.69.298a1.029 1.029 0 0 0-.585 1.804l2.812 2.427-.856 3.628a1.024 1.024 0 0 0 1.53 1.114L8 12.405l3.158 1.943a1.024 1.024 0 0 0 1.53-1.114l-.86-3.63 2.812-2.426a1.03 1.03 0 0 0 .309-1.1m-.959.342-3.044 2.625a.5.5 0 0 0-.16.494l.93 3.925a.02.02 0 0 1 .001.017.02.02 0 0 1-.011.013c-.012.009-.015.007-.024 0l-3.42-2.103a.5.5 0 0 0-.524 0l-3.42 2.104c-.01.006-.012.008-.024 0a.023.023 0 0 1-.01-.03l.93-3.925a.5.5 0 0 0-.16-.494L2.01 6.422c-.007-.006-.014-.012-.008-.031.006-.02.011-.017.02-.019l3.996-.322a.5.5 0 0 0 .42-.309l1.538-3.725c.005-.011.007-.016.022-.016s.017.005.022.016L9.563 5.74a.5.5 0 0 0 .421.308l3.995.322c.01 0 .015 0 .021.018s0 .025-.01.032"/></svg>