<svg viewBox="0 0 30 24" xmlns="http://www.w3.org/2000/svg" fill="black"><g><path d="m11.396 22.493.14-2c.107-1.486.208-2.971.327-4.456a.65.65 0 0 1 .202-.396q5.97-5.37 11.94-10.728c.044-.039.099-.068.125-.113.067-.123.123-.252.183-.38-.143-.041-.298-.14-.425-.113a2.1 2.1 0 0 0-.638.271 9577 9577 0 0 0-14.863 9.297.55.55 0 0 1-.516.067c-2.072-.65-4.145-1.295-6.217-1.946a2.9 2.9 0 0 1-.664-.294c-.532-.338-.574-.811-.089-1.215.258-.217.549-.391.861-.516 1.915-.752 3.84-1.483 5.762-2.22L27.373.16q.235-.095.484-.14c.881-.132 1.518.399 1.493 1.333-.016.62-.155 1.239-.286 1.852a9671 9671 0 0 1-3.974 18.64c-.059.275-.113.55-.184.822-.367 1.369-1.365 1.717-2.513.878q-1.802-1.319-3.605-2.64c-.876-.643-1.759-1.277-2.626-1.931-.196-.148-.298-.12-.462.039-1.044 1.014-2.098 2.008-3.148 3.013a1.5 1.5 0 0 1-1.156.468"/></g></svg>