<svg viewBox="0 0 25 24" xmlns="http://www.w3.org/2000/svg" fill="black"><g><path d="M24.56 11.994c0 1.946.008 3.89 0 5.835-.014 2.374-1.045 4.183-3.088 5.395a5.7 5.7 0 0 1-2.954.77c-3.977 0-7.952.012-11.924 0A6.02 6.02 0 0 1 .56 17.933V6.078C.57 3.398 2.203 1.143 4.738.291A6 6 0 0 1 6.65 0h11.81c2.693 0 4.944 1.623 5.806 4.175.204.633.303 1.295.294 1.96q-.003 2.931-.002 5.86M4.59 7.364c-.013.592.261 1.165.52 1.743a19 19 0 0 0 4.286 6.084c1.846 1.751 3.974 3.063 6.306 4.053.47.198.953.32 1.477.143a3.78 3.78 0 0 0 2.073-1.662c.461-.75.41-1.375-.205-1.863a40 40 0 0 0-2.406-1.741 1.52 1.52 0 0 0-1.295-.242c-.413.116-.7.4-.934.739-.487.702-1.052.657-1.617.412-.982-.432-1.865-1.012-2.58-1.823-.564-.642-1.034-1.349-1.272-2.185a1.1 1.1 0 0 1 .315-1.164q.247-.216.516-.402c.54-.41.7-.883.438-1.427a9.7 9.7 0 0 0-2.234-2.998 1.1 1.1 0 0 0-.882-.3q-.382.046-.742.187C5.218 5.37 4.586 6.235 4.59 7.364m14.819 3.801a5.6 5.6 0 0 0-.329-1.87c-.666-1.878-1.919-3.247-3.696-4.131a6.43 6.43 0 0 0-3.014-.653c-.174 0-.327.048-.407.22-.131.282-.012.486.322.545.499.087 1.004.147 1.496.263 1.013.239 1.959.632 2.763 1.315 1.001.85 1.54 1.972 1.823 3.221.131.576.188 1.17.282 1.754.037.225.157.318.39.313s.353-.11.369-.335c.011-.186 0-.374 0-.642m-1.845-.395.06-.01c-.094-.434-.134-.882-.274-1.298-.587-1.734-2.263-3.051-4.426-3.172-.269-.015-.409.112-.442.375-.03.231.072.348.338.417.588.154 1.185.282 1.756.48.925.325 1.564.966 1.852 1.91.162.543.253 1.107.375 1.662.055.25.166.349.398.335.23-.013.348-.128.369-.375.001-.104-.006-.214-.006-.324m-1.729-.53a2 2 0 0 0-.02-.172c-.149-.72-.563-1.255-1.17-1.65-.376-.244-.776-.404-1.235-.318a.43.43 0 0 0-.382.43c0 .24.188.277.36.327.254.075.52.124.752.237.548.265.783.751.864 1.331.046.332.209.5.434.488.249-.014.376-.194.394-.543.004-.023.003-.042.003-.13"/></g></svg>