<svg viewBox="0 0 25 24" xmlns="http://www.w3.org/2000/svg" fill="black"><g><path d="M1.144 23.487a471 471 0 0 1 1.395-4.142.56.56 0 0 0-.074-.577A11.4 11.4 0 0 1 .508 13.9c-.445-2.875.05-5.59 1.567-8.077C3.791 3.006 6.261 1.15 9.47.358c5.759-1.424 11.597 1.508 13.941 6.955 1.95 4.527.84 9.928-2.736 13.33-1.998 1.898-4.368 3.025-7.11 3.293a11.68 11.68 0 0 1-7.522-1.75.64.64 0 0 0-.603-.072c-1.341.442-2.688.864-4.034 1.294zm15.094-4.726c.386-.074.717-.1 1.023-.203 1.701-.58 2.279-1.4 2.329-2.963a.5.5 0 0 0-.306-.525c-.894-.425-1.784-.863-2.68-1.28-.459-.214-.728-.126-1.033.281-.233.313-.461.63-.702.94-.365.469-.624.527-1.18.3-2.008-.82-3.489-2.235-4.602-4.07a.525.525 0 0 1 .046-.67c.188-.22.376-.443.577-.646.447-.446.62-.927.252-1.503l-.008-.023c-.357-.838-.706-1.68-1.077-2.515-.056-.128-.188-.282-.316-.312-.64-.15-1.284-.16-1.834.262-.496.388-.87.91-1.08 1.503-.44 1.179-.3 2.327.187 3.46.357.832.88 1.562 1.409 2.283a16.6 16.6 0 0 0 3.127 3.245c1.289 1.005 2.759 1.638 4.31 2.096.53.152 1.074.234 1.558.34"/></g></svg>