<svg viewBox="0 0 35 24" xmlns="http://www.w3.org/2000/svg" fill="black"><g><path d="M17.433 23.997c-3.13.023-6.59-.167-10.046-.485-1.11-.102-2.223-.201-3.314-.398-1.459-.265-2.652-1.709-2.818-3.182-.342-3.11-.546-6.223-.43-9.344.082-2.2.257-4.4.449-6.595.14-1.607 1.64-3.021 3.255-3.168C6.826.614 9.12.36 11.423.212c3.792-.26 7.596-.28 11.39-.057 2.765.175 5.524.438 8.284.679 1.547.132 3.004 1.615 3.182 3.182.36 3.224.558 6.46.432 9.702a112 112 0 0 1-.448 6.33c-.149 1.572-1.652 2.99-3.332 3.182-4.481.513-8.988.769-13.498.767M14.955 6.378v11.27l8.47-5.635z"/></g></svg>