<svg xmlns="http://www.w3.org/2000/svg" xmlns:xlink="http://www.w3.org/1999/xlink" width="0" height="0" style="display:none;"><symbol viewBox="0 0 24 24" id="_icon-E-mail"><path d="M5.982 17.047q-.977 0-1.483-.492-.5-.492-.499-1.463V7.955q0-.97.479-1.463Q4.957 6 5.812 6h11.716q.978 0 1.477.492.506.492.506 1.463v7.137q0 .97-.479 1.463-.478.492-1.34.492zm-.027-.896h11.6q.499 0 .773-.266.28-.273.28-.793v-7.13q0-.519-.28-.793-.273-.273-.772-.273h-11.6q-.507 0-.78.273-.274.273-.274.786v7.13q0 .525.274.8.273.266.78.266m5.797-2.966q-.307 0-.595-.117a2 2 0 0 1-.56-.369L4.506 7.217l.615-.615 6.002 5.4q.294.273.629.273.328 0 .629-.273l5.995-5.4.622.615-6.098 5.482a1.9 1.9 0 0 1-.56.37 1.6 1.6 0 0 1-.588.116m-6.535 3.083-.609-.616 4.628-4.628.616.609zm13.077.006-4.648-4.641.622-.609 4.641 4.635z"></path></symbol><symbol viewBox="0 0 32 32" id="_icon-Information"><path d="M15.333 30q-2.756 0-5.177-1.044a13.4 13.4 0 0 1-4.245-2.867 13.6 13.6 0 0 1-2.881-4.245Q2 19.422 2 16.666t1.03-5.163a13.6 13.6 0 0 1 2.88-4.26 13.4 13.4 0 0 1 4.246-2.866q2.421-1.044 5.177-1.044 2.757 0 5.164 1.044a13.4 13.4 0 0 1 4.259 2.867 13.4 13.4 0 0 1 2.867 4.259q1.044 2.408 1.044 5.163t-1.044 5.178a13.4 13.4 0 0 1-2.867 4.245 13.4 13.4 0 0 1-4.26 2.867Q18.09 30 15.334 30m-2.366-5.79h5.512a.85.85 0 0 0 .626-.25.84.84 0 0 0 .264-.64.81.81 0 0 0-.264-.613.85.85 0 0 0-.626-.25h-1.782v-7.14q0-.488-.25-.794-.25-.32-.71-.32h-2.575a.87.87 0 0 0-.64.264.81.81 0 0 0-.264.613q0 .375.264.64.264.25.64.25h1.559v6.486h-1.754a.91.91 0 0 0-.654.25.81.81 0 0 0-.264.613q0 .39.264.64t.654.25m2.269-12.317q.696 0 1.169-.488.487-.486.487-1.197 0-.695-.487-1.169a1.57 1.57 0 0 0-1.17-.487 1.6 1.6 0 0 0-1.182.487 1.59 1.59 0 0 0-.473 1.17q0 .71.473 1.196.487.488 1.183.488"></path></symbol><symbol viewBox="0 0 24 24" id="_icon-Phone"><path d="M16.313 19.79q-1.056 0-2.227-.43-1.172-.423-2.383-1.243a16.5 16.5 0 0 1-2.36-1.976q-1.155-1.157-1.976-2.36-.82-1.21-1.242-2.383-.422-1.179-.422-2.226 0-.617.117-1.11.117-.5.367-.921a3.7 3.7 0 0 1 .75-.867l.094-.079q.727-.655 1.407-.648.383 0 .734.227.36.218.68.687l1.453 2.094q.273.39.242.812-.032.414-.242.75l-.68 1.063q-.172.273-.031.523.172.305.547.766.375.46.828.914.288.305.625.602.336.288.625.515.29.22.453.32.18.11.328.118a.74.74 0 0 0 .328-.086l1.156-.555q.516-.25.907-.227.39.016.812.297l1.828 1.258q.47.32.688.688.225.36.226.734 0 .344-.164.695a3 3 0 0 1-.484.727q-.047.039-.086.078a.6.6 0 0 1-.07.086q-.563.617-1.235.883-.672.273-1.593.273m0-1.024a3 3 0 0 0 1.14-.227q.524-.21.922-.648l.047-.063a1 1 0 0 1 .055-.062q.328-.367.328-.727a.6.6 0 0 0-.078-.305.63.63 0 0 0-.243-.257l-1.726-1.157a.9.9 0 0 0-.375-.148.68.68 0 0 0-.399.086l-1.257.594q-.47.226-.805.195a1.4 1.4 0 0 1-.656-.266 10 10 0 0 1-.594-.445 31 31 0 0 1-.727-.617 12 12 0 0 1-.672-.633 15 15 0 0 1-.898-1.008 19 19 0 0 1-.734-.953q-.236-.32-.258-.625-.024-.304.203-.672l.734-1.187q.226-.36.04-.633L9.015 7a.65.65 0 0 0-.57-.32.85.85 0 0 0-.352.086 1.8 1.8 0 0 0-.43.297 2.513 2.513 0 0 0-.719.969q-.21.523-.226 1.132-.015.945.43 2.04.452 1.085 1.226 2.179.774 1.095 1.742 2.062.96.961 2.031 1.72 1.079.75 2.149 1.187 1.078.437 2.015.414"></path></symbol><symbol viewBox="0 0 24 24" id="_icon-Region"><path fill-rule="evenodd" clip-rule="evenodd" d="M11.501 10.806a.5.5 0 1 0 0 1 .5.5 0 0 0 0-1m-1.5.5a1.5 1.5 0 1 1 3 0 1.5 1.5 0 0 1-3 0"></path><path fill-rule="evenodd" clip-rule="evenodd" d="M6.001 11.22c0-2.99 2.463-5.414 5.5-5.414s5.5 2.424 5.5 5.415a5.34 5.34 0 0 1-1.097 3.246l-.012.015-2.935 3.612c-.333.431-.861.712-1.456.712-.594 0-1.123-.28-1.455-.712L7.11 14.482l-.012-.015a5.34 5.34 0 0 1-1.098-3.246m5.5-4.229c-2.372 0-4.296 1.894-4.296 4.23 0 .948.317 1.822.852 2.528l2.934 3.61.012.015c.114.15.295.246.498.246a.62.62 0 0 0 .499-.246l.011-.014 2.935-3.611c.535-.706.851-1.58.851-2.528 0-2.336-1.923-4.23-4.296-4.23"></path><path fill-rule="evenodd" clip-rule="evenodd" d="M14.977 18.117a.61.61 0 0 1 .814-.242c.6.311 1.21.817 1.21 1.55 0 .476-.265.859-.587 1.138-.323.279-.755.503-1.238.68-.97.355-2.269.563-3.675.563s-2.705-.208-3.674-.563c-.483-.177-.916-.401-1.238-.68S6 19.9 6 19.425c0-.733.61-1.239 1.21-1.55a.61.61 0 0 1 .814.242.58.58 0 0 1-.248.795c-.523.272-.572.478-.572.513 0 .019.009.108.183.258.173.15.458.312.861.46.803.293 1.953.487 3.252.487 1.3 0 2.45-.194 3.252-.488.404-.147.689-.31.862-.459s.182-.239.182-.258c0-.035-.048-.24-.572-.513a.58.58 0 0 1-.248-.795"></path></symbol><symbol viewBox="0 0 24 24" id="_icon-facebook"><rect width="24" height="24" rx="12"></rect><path d="M18 12.923h-3.667v-2.77c0-.763.657-.691 1.467-.691h1.467V6h-2.934c-2.43 0-4.4 1.86-4.4 4.154v2.77H7v3.46h2.933V24h4.4v-7.615h2.2z"></path></symbol><symbol viewBox="0 0 24 24" id="_icon-instagram"><rect width="24" height="24" rx="12"></rect><path d="M15.04 6.263c.716.003 1.402.29 1.908.799.506.508.792 1.197.795 1.917v6.04a2.73 2.73 0 0 1-.795 1.917 2.7 2.7 0 0 1-1.907.798H8.959a2.7 2.7 0 0 1-1.907-.799 2.73 2.73 0 0 1-.795-1.916v-6.04c.003-.72.289-1.409.795-1.917a2.7 2.7 0 0 1 1.907-.799zm0-1.263H8.96C6.781 5 5 6.793 5 8.98v6.04c0 2.188 1.784 3.978 3.96 3.978h6.08c2.178 0 3.96-1.792 3.96-3.978v-6.04C19 6.79 17.218 5 15.04 5"></path><path d="M11.997 9.642c.464 0 .918.138 1.303.397a2.368 2.368 0 0 1 .356 3.627 2.34 2.34 0 0 1-2.557.512 2.365 2.365 0 0 1-.76-3.844 2.34 2.34 0 0 1 1.658-.692m0-1.263a3.6 3.6 0 0 0-2.002.61 3.6 3.6 0 0 0-1.327 1.625 3.64 3.64 0 0 0 .781 3.945 3.6 3.6 0 0 0 3.927.785 3.6 3.6 0 0 0 1.617-1.333 3.63 3.63 0 0 0-.448-4.572 3.6 3.6 0 0 0-2.548-1.06"></path><path d="M15.674 9.078a.856.856 0 0 0 .855-.858.856.856 0 0 0-.855-.859.856.856 0 0 0-.854.859c0 .474.383.858.854.858"></path></symbol><symbol viewBox="0 0 28 28" id="_icon-star"><path d="m8.585 23.7 5.422-3.945 5.421 3.945q.5.363.962.287.48-.096.71-.498.232-.402.02-1.015l-2.134-6.357 5.48-3.907q.46-.325.519-.804.076-.479-.231-.842-.288-.365-.942-.345l-6.73.02-2.057-6.396q-.173-.556-.595-.747a.98.98 0 0 0-.846 0q-.423.19-.596.747l-2.058 6.395-6.71-.019q-.634-.02-.961.345a1.06 1.06 0 0 0-.25.842q.058.48.538.823l5.48 3.888-2.134 6.357q-.192.613.038 1.015a1 1 0 0 0 .692.498q.461.075.962-.287"></path></symbol></svg>